<?xml version="1.0" encoding="utf-8"?>
<!-- Generator: Adobe Illustrator 24.2.0, SVG Export Plug-In . SVG Version: 6.00 Build 0)  -->
<svg version="1.1" id="Layer_1" xmlns="http://www.w3.org/2000/svg" xmlns:xlink="http://www.w3.org/1999/xlink" x="0px" y="0px"
	 viewBox="0 0 468 468" style="enable-background:new 0 0 468 468;" xml:space="preserve">
<style type="text/css">
	.st0{fill:#0E904B;}
	.st1{fill:#201F1E;}
	.st2{fill:#6B6163;}
	.st3{fill:#FFFFFF;}
	.st4{fill:#F08226;}
	.st5{fill:#AEB0AF;}
</style>
<rect x="-3140" y="-90" class="st0" width="864" height="648"/>
<g>
	<g>
		<g>
			<path class="st1" d="M-3561.5-74.6c19.7-2.4,40.1-0.9,58.6,6.6c13.8,5.6,26.4,15.1,33.8,28.2c3.3,5.6,5.1,11.8,6.6,18
				c10.9,3.2,21.8,6.9,31.4,13c4.7,3.1,9.5,7.1,11.3,12.7c1.7,5.1-0.3,10.8-4,14.4c-6.7,6.6-15.9,9.3-24.5,12.6
				c2.7,13.8,1.4,28.3-3.5,41.5c-5.7,15.7-16,29.4-28.6,40.2c0.9,2.1,1.7,4.1,2.6,6.2c1.6-0.9,3.3-2.1,5.2-1.9
				c34.7,0,69.4,0,104.1,0c3.4,0,5.9,3.4,5.5,6.6c0,34,0,68,0,101.9c0.1,2.3-0.5,4.7-2.5,6c-12,9.1-24.1,18-36,27.1
				c-2.1,1.5-4.2,3.7-7,3.4c-33.9,0-67.9,0-101.8,0c-4.9,5.3-10.3,10.1-16.1,14.4c10.9,17.4,21.8,34.7,32.7,52
				c6.9-3.5,13.6-7.1,20.5-10.5c5.4-2.4,11.7,1.2,14,6.2c2.6,4.9,1.6,12.2-3.7,14.8c-8.6,4.5-17.2,8.8-25.8,13.3
				c-2.8,1.5-5.6,3.4-8.8,3.5c-4.2,0.1-8.1-2.4-10.3-5.9c-14.2-20.1-28.6-40.1-41.2-61.3c-25.3,9.5-53.9,5.9-77.9-5.5
				c-4.1,6.2-8.1,12.6-12.3,18.8c-2.9,4.3-8.5,6.4-13.5,5.3c-14.4-2.9-28.7-5.9-43.1-8.9c-4.8,9.5-9.4,19.2-14.3,28.7
				c-3.1,6.1-11.5,7.2-17.1,4.1c-5.6-2.7-9.4-9.8-6.5-15.8c5.3-10.9,10.8-21.8,16.2-32.7c1.7-3.5,2.7-7.6,5.9-10.2
				c2.4-2.2,5.9-2.9,9.1-2c15.5,3.3,31.1,6.3,46.6,9.7c2.3-3.3,4.5-6.7,6.6-10.1c-14.1-10-26.5-22.5-35.1-37.6
				c-7.6-13.3-12-28.5-12.1-43.9c-0.2-18,5.1-35.7,13.4-51.6c9.7-18.5,23.2-35,39.3-48.4c-6.3-14.9-7.4-31.8-3.6-47.5
				c-5.3-3.8-9.2-9.3-10.9-15.6c-4.2-14.4-1.4-30.2,5.6-43.3c7.2-13.7,18.4-25.1,31-34C-3604-64.2-3583-71.8-3561.5-74.6z
				 M-3560.5-57.6c-21.4,3.1-42.2,11.3-58.9,25.2c-11.2,9.3-20.8,21.7-23.4,36.4c-1.1,6.9-0.9,14.6,2.6,20.8
				c1.5,0.6,3.2,0.2,4.8,0.2c22.7-1.7,45.2-5,67.4-10.1c30.9-7.2,61.3-17.8,88.9-33.6c-2.2-13.6-12.3-24.6-24.3-30.7
				C-3520.9-58.5-3541.3-60.2-3560.5-57.6z M-3619.6,37.4c20.9,5.8,42.9,5.5,64.3,3.7c34.9-3.4,69.4-11.3,102.5-23.1
				c7.1-2.9,15-4.8,20.5-10.5c-3.1-3.9-7.6-6.1-12-8.2c-7.7-3.6-15.8-6.4-24-8.7C-3514.2,18-3566.9,31.5-3619.6,37.4z M-3567.6,55.6
				c-21.5,0.9-43.5-0.3-63.9-7.6c-3.4,16.1,0.7,33.6,10.7,46.6c9.9,13.1,24.8,21.7,40.6,25.7c21.8,5.5,45.2,2.8,65.7-6.2
				c-6.7,0.5-13.6,0.4-20.2-1.1c-11.6-2.3-22.3-9-28.9-18.9c2.8-1.9,5.6-3.9,8.4-5.9c4.8,6.7,11.9,11.9,19.9,14
				c12.5,3.5,25.8,1.4,38-2.5c3.4-1.2,6.9-2.1,10-4.1c16-14.9,26.2-37.3,22.7-59.4C-3498,46.7-3532.5,54-3567.6,55.6z
				 M-3662.2,134.8c-9,14.1-15.8,29.9-17.1,46.7c-1.3,15.4,2.6,31.1,10.7,44.2c7.3,11.9,17.3,22.1,28.8,29.9
				c5.5-8.9,11.4-17.6,17.1-26.5c1.6-2.6,3.3-5.3,6.1-6.8c4.9-3,11.6-2.2,15.6,1.9c4.4,4.1,5.2,11.5,1.8,16.5
				c-6,9.4-12.1,18.6-18.2,28c16.5,7.3,35.2,10.8,53,6.8c16.9-3.7,31.8-13.9,43.2-26.7c1.2-1.6,3.3-3,3.3-5.2
				c0.1-11.6,0-23.2,0.1-34.8c-11.2-8.1-22.7-15.9-33.9-24c-5.1-3.6-5.2-11.5-1.5-16.1c3.3-4.6,10.3-6.8,15.2-3.4
				c6.8,4.6,13.4,9.5,20.2,14.1c0-8.9,0-17.8,0-26.8c-0.2-2.3,1-4.3,2.9-5.6c7.7-5.8,15.4-11.5,23.1-17.4c-0.8-2.3-1.6-4.5-2.5-6.8
				c-27.7,16.6-62.2,22.1-93.4,13c-18.7-5.4-36-16.5-47.6-32.2C-3645.8,112.6-3654.8,123.2-3662.2,134.8z M-3472.3,129.7
				c-7.3,5.5-14.7,11-21.9,16.5c27.3,0,54.5,0,81.8,0c1.3,0,2.6-0.1,3.6-1c7.3-5.5,14.6-11,21.9-16.5c-27.2,0-54.4,0-81.7,0
				C-3469.9,128.7-3471.2,128.8-3472.3,129.7z M-3402.1,155.1c0,29.7,0,59.4,0,89c9.1-6.7,18.1-13.6,27.2-20.3
				c0.1-29.7,0-59.4,0.1-89.1C-3383.9,141.4-3393,148.3-3402.1,155.1z M-3506.1,187.7c4,2.8,7.9,5.5,11.9,8.4
				c9-3.1,17.9-6.5,26.9-9.6c5.3-2,11.2,1.4,13.5,6.3c3,5.6,1.4,14-4.9,16.4c-11.6,4.2-23.2,8.5-34.9,12.5
				c-4.8,1.6-9.1-1.9-12.5-4.8c0,11.1,0,22.2,0,33.2c30.7,0,61.4,0,92.1,0c0-30.7,0-61.4,0-92c-30.7,0-61.4,0-92,0
				C-3506.1,168-3506.1,177.9-3506.1,187.7z"/>
		</g>
		<path class="st1" d="M-3745,23.3c18.6-1.3,37.5-1.4,56,1c3.2,0.7,7.1,0.7,9.6,3.1c-0.3,1.4-2,1.6-3.1,2.1
			c-5.5,1.5-11.2,2-16.9,2.4c-15.6,1.1-31.3,1.1-46.9-0.2c-5.7-0.7-11.8-0.8-17-3.5c-0.3-1.8,1.7-2.1,2.9-2.6
			C-3755.4,24.2-3750.1,23.8-3745,23.3z"/>
		<path class="st1" d="M-3490.1,57.9c4.2-2.6,9.9,0.8,10.4,5.6c1.1,4.8-3.8,9.9-8.6,8.1C-3494.2,69.9-3495.5,60.9-3490.1,57.9z"/>
		<path class="st1" d="M-3772.6,65.6c18.6-2.3,37.6-2.2,56.3-0.8c6.1,0.8,12.6,0.8,18.1,3.9c-1.2,1.2-2.7,2.2-4.4,2.5
			c-8.2,1.9-16.6,2.3-24.9,2.7c-13.7,0.5-27.5,0.4-41.1-1c-4.9-0.6-10-1-14.5-3.4C-3780.6,66.3-3776.2,66.4-3772.6,65.6z"/>
		<path class="st1" d="M-3548.3,67.6c4.6-2.6,10.5,1.8,10.3,6.9c0.4,4.7-4.9,8.8-9.4,6.7C-3552.8,79-3553.6,70.3-3548.3,67.6z"/>
		<path class="st1" d="M-3809.4,209.1c13.2-1.6,26.6-1.7,39.9-1.4c9,0.3,18,0.7,26.8,2.4c2.2,0.4,4.2,1.3,6.1,2.5
			c-3.9,3.2-9.3,3.1-14,3.9c-18.9,1.9-38.1,1.9-57,0c-4.8-0.8-10.1-0.7-14-3.9C-3818,210.1-3813.6,209.7-3809.4,209.1z"/>
		<path class="st1" d="M-3775.3,244.6c18.2-2,36.6-2,54.9-0.6c5.9,0.6,12.1,1,17.5,3.7c-2,3.1-6.2,3-9.5,3.7
			c-18.9,2.5-38.1,2.4-57.1,1c-6.2-0.8-12.8-0.7-18.3-4.1C-3784.4,245.4-3779.6,245.4-3775.3,244.6z"/>
		<path class="st1" d="M-3986,408c6.5-7,16-10.9,25.6-11c9.6-0.3,19.9,2.6,26.4,10.1c2.9,3.2,1.2,9.5-3.4,9.8
			c-3.7,0.8-6.5-2.3-9.4-3.9c-8.4-5.1-20.4-4.8-27.8,2.2c-9.2,8.4-10.1,23.3-4.3,33.8c3.5,6.3,10.3,10.6,17.6,10.9
			c6.8,0.3,14.5-0.6,19.8-5.4c0.3-3.4,0-6.8,0.1-10.2c-5.5-0.1-11.1,0.3-16.6-0.2c-6.3-0.9-5.8-12,0.7-12c7.6-0.2,15.2-0.1,22.9,0
			c3.5-0.2,6.3,2.9,6,6.3c-0.1,6.6,0.5,13.3-0.3,19.9c-1.5,3.2-4.6,5.3-7.4,7.4c-8.8,5.9-20,7.2-30.3,5.6
			c-11.7-1.8-22-10.2-26.4-21.2C-3998.5,436.3-3996.6,419-3986,408z"/>
		<path class="st1" d="M-3781.5,403.4c-0.4-5.8,7.7-7.9,11.3-4.2c1.9,1.9,1.6,4.9,1.7,7.4c-0.1,6.5,0,13-0.1,19.5
			c8.3-7.9,23.7-6.4,29.9,3.4c4.6,6.7,3.9,15.2,3.9,23c-0.2,4.9,0.4,9.8-0.3,14.7c-1.3,6.1-12,5.7-12.6-0.6c-0.4-8,0.1-16-0.3-24
			c-0.2-2.7-1-5.7-3.3-7.4c-5.7-4.1-15.5-1.6-16.9,5.8c-1,8.5,0.1,17.1-0.6,25.6c-0.5,6-10.3,6.9-12.4,1.5c-0.6-1.8-0.5-3.6-0.5-5.4
			C-3781.4,442.8-3781.6,423.1-3781.5,403.4z"/>
		<path class="st1" d="M-3397.6,399.4c3.3-3.5,11.1-2.3,11.4,3.1c0.3,11.8,0,23.5,0.1,35.3c6.3-4.9,12.6-9.9,19-14.8
			c2.1-1.8,5.3-2,7.7-0.7c3.1,1.8,3.4,6.8,0.7,9.1c-4.4,3.8-9.2,7.2-13.8,10.9c4.9,6.4,10,12.8,14.9,19.2c2.2,2.6,1.9,7.2-1.1,9
			c-2.5,1.4-6.1,1.3-7.9-1.1c-5.3-6.5-10.2-13.2-15.4-19.7c-1.4,1.1-2.7,2.2-4.1,3.3c-0.2,4.8,0.4,9.6-0.3,14.3
			c-1.5,5.5-10.9,5.5-12.4,0c-0.6-3-0.3-6-0.3-9c0-17.7,0-35.3,0-53C-3399,403.4-3399.1,401-3397.6,399.4z"/>
		<path class="st1" d="M-3915.1,403.9c3.5-1.6,8.8-1.2,10.6,2.6c1.5,3.4,1.1,8.5-2.6,10.4c-3.6,1.7-9.2,1.1-10.8-3.1
			C-3919.1,410.5-3918.6,405.7-3915.1,403.9z"/>
		<path class="st1" d="M-3512.2,403.8c4.4-2.2,11.2,0,11.1,5.7c1,4.9-3.5,9.3-8.4,8.3C-3516.6,417.7-3518,406.6-3512.2,403.8z"/>
		<path class="st1" d="M-3345.1,404c3.6-1.8,9.3-1.3,11,2.9c1.2,3.4,0.8,8.3-2.9,10.1c-3.6,1.6-9.2,0.9-10.7-3.3
			C-3348.8,410.4-3348.4,405.9-3345.1,404z"/>
		<path class="st1" d="M-3545,408c1.4-5.8,11.6-5.4,12.5,0.5c0.5,4.6,0.1,9.2,0.2,13.8c3.2,0.1,6.5-0.3,9.7,0.4
			c4.4,1.5,4.4,9,0.1,10.6c-3.2,0.7-6.5,0.3-9.8,0.4c-0.1,10.9,0.2,21.9-0.2,32.8c-0.5,6.7-12.2,6.6-12.7-0.1
			c-0.4-10.9,0-21.8-0.2-32.7c-2.7,0-5.4,0.2-8.1-0.2c-5.2-0.9-5.2-9.9,0-10.9c2.7-0.4,5.4-0.3,8.1-0.3
			C-3545.2,417.5-3545.8,412.7-3545,408z"/>
		<path class="st1" d="M-3429.3,408.6c0.8-6.2,11.5-6.3,12.6-0.2c0.5,4.6,0.1,9.3,0.2,13.9c3.3,0.1,6.6-0.3,9.8,0.4
			c4.3,1.6,4.3,9,0,10.6c-3.2,0.7-6.5,0.3-9.8,0.4c0,9.9,0,19.9,0,29.9c-0.1,1.7,0.1,3.5-0.8,5c-2.6,4.7-11.6,3.7-12.1-2
			c-0.4-10.9,0-21.9-0.2-32.8c-2.9-0.1-5.9,0.3-8.8-0.4c-4.3-1.6-4.3-8.9-0.1-10.5c2.9-0.8,5.9-0.4,8.8-0.5
			C-3429.4,417.7-3429.8,413.1-3429.3,408.6z"/>
		<path class="st1" d="M-3914.1,422c2.8-1,6.5-0.7,8.4,1.8c1.5,2.3,1.1,5.1,1.2,7.7c-0.2,11.6,0.2,23.3-0.2,34.9
			c-0.5,6-10,6.8-12.3,1.7c-0.7-1.8-0.6-3.8-0.6-5.7c0.1-11.3,0-22.6,0-34C-3917.8,425.9-3916.7,423-3914.1,422z"/>
		<g>
			<path class="st1" d="M-3892.8,427.3c2.9-4.2,8.5-5,13.2-5.8c8.5-1,18.6-0.5,24.7,6.4c5,5.6,4.7,13.6,4.6,20.6
				c-0.2,6.3,0.4,12.7-0.3,19c-1.5,5.5-9.9,5.2-12.3,0.6c-7.7,5.5-19.2,5.5-26.7-0.4c-7-5.3-7.1-17-0.4-22.6
				c7.5-6,18.8-5.8,26.9-1.1c-0.3-3.5-0.7-7.8-4.1-9.7c-6.1-3.2-13.1-0.9-19.2,1C-3891,436.8-3895.1,431.3-3892.8,427.3z
				 M-3877.1,451c-4.9,0.2-6.7,7.2-2.5,9.7c4.4,2.1,10.3,1.9,14.4-0.9c2.1-1.3,2.7-4.6,0.8-6.3
				C-3867.8,450.3-3872.8,450.1-3877.1,451z"/>
		</g>
		<g>
			<path class="st1" d="M-3822.3,421.7c8-1.6,16.9-0.1,23.1,5.5c10.4,8.9,11.2,26.5,2,36.6c-9.4,10.8-28.4,10.9-37.9,0.3
				c-9.2-9.8-8.8-26.9,1-36.1C-3830.9,424.8-3826.7,422.6-3822.3,421.7z M-3820.1,433.2c-10.7,3.3-11.5,20.7-2,25.9
				c5.1,2.5,12.3,1.5,15.6-3.5c3.5-5.3,3.5-12.8,0-18.1C-3809.3,433.1-3815.2,431.8-3820.1,433.2z"/>
		</g>
		<g>
			<path class="st1" d="M-3723.2,426.9c3-3.8,8.2-4.6,12.6-5.4c7.7-0.9,16.4-0.8,22.9,4.2c5.4,4.1,7,11.3,6.8,17.8
				c-0.2,7.8,0.3,15.7-0.2,23.5c-1.1,5.8-9.9,5.9-12.3,1c-8,5.5-20.1,5.5-27.5-1c-6.6-5.8-6-17.7,1.3-22.7
				c7.6-5.1,18.1-4.8,25.9-0.4c-0.2-3.6-0.7-8-4.3-9.8c-6.2-3.1-13.2-0.6-19.4,1.2C-3722.2,436.5-3725.9,430.8-3723.2,426.9z
				 M-3708.1,451c-4.8,0.4-6.1,7.7-1.9,9.8c4.6,1.9,10.4,1.8,14.4-1.4c2-1.4,2.3-4.6,0.3-6.2C-3698.7,450.2-3703.8,450.1-3708.1,451
				z"/>
		</g>
		<path class="st1" d="M-3667.2,422.8c3.7-2.6,9.4-1.2,10.9,3.3c8.5-8.1,24.3-6.2,30.2,4.1c4.5,7,3.3,15.5,3.4,23.4
			c-0.1,4.5,0.3,9.1-0.3,13.6c-1.3,6.1-12,5.7-12.6-0.6c-0.5-8,0.1-16-0.2-24c-0.2-3-1.2-6.3-4-7.9c-2.9-1.7-6.5-1.8-9.7-0.9
			c-3.9,1.2-6.6,5-6.8,9c-0.4,7.9,0.2,15.9-0.3,23.8c-0.5,6-10.4,6.8-12.4,1.4c-0.6-1.7-0.5-3.6-0.5-5.4c0.1-11,0-22.1,0-33.1
			C-3669.5,427.1-3669.3,424.3-3667.2,422.8z"/>
		<g>
			<path class="st1" d="M-3608.5,429.5c7.4-9.7,23.6-11.4,32.6-3c0.9-2.8,3.2-5.3,6.4-4.9c3.4-0.3,6.6,2.5,6.3,6
				c0.1,13.3,0.1,26.6,0,39.9c-0.1,7.5-3,15.6-9.8,19.6c-8.2,4.7-18.4,4.6-27.3,2.3c-3.8-1.4-8.4-2.5-10.6-6.3c-2.1-4,2-9,6.3-7.9
				c3.7,1.3,7,3.7,11,4.2c4.6,0.7,9.7,0.6,13.6-2.1c3.7-2.9,3.6-8,3.8-12.2c-7,6.4-18.1,6.8-26.2,2.2
				C-3615.1,459.9-3617.4,440.7-3608.5,429.5z M-3592.1,433c-9,2.4-11.3,15.1-5.5,21.7c4,4.9,12,5.4,16.8,1.5
				c6.3-5.1,6.3-16.2-0.1-21.2C-3584.1,432.5-3588.4,432-3592.1,433z"/>
		</g>
		<path class="st1" d="M-3511.2,422c2.6-0.8,5.9-0.6,7.8,1.5c1.5,1.6,1.5,4,1.5,6c0,11.4,0,22.7,0,34.1c0,2,0,4.4-1.5,6
			c-3.6,3.8-11.9,1.9-11.5-4.1c-0.2-12.3,0-24.7-0.1-37C-3515.1,425.8-3513.9,422.8-3511.2,422z"/>
		<g>
			<path class="st1" d="M-3486.6,429.5c7-8.5,20.1-10.9,29.8-5.8c8.4,4.6,12.9,14.5,12.2,23.9c-0.1,2.5-2.6,4.1-5,3.9
				c-9.9,0.2-19.8,0-29.7,0.1c0.9,2.9,2,6.2,5,7.7c6,3.1,13.6,1.6,18.3-3.1c2.6-3,8.3-2.6,9.6,1.4c1.1,2.8-0.5,5.7-2.6,7.6
				c-6.6,6.6-16.8,7.9-25.6,6c-7.9-1.7-14.5-8-16.8-15.8C-3493.9,446.7-3492.7,436.5-3486.6,429.5z M-3478.8,440.4
				c7.3,0,14.6,0.1,21.9,0c-1.7-5.2-6.9-9.2-12.5-8.2C-3474.2,432.3-3477.7,436.1-3478.8,440.4z"/>
		</g>
		<path class="st1" d="M-3344,422.1c3.9-1.8,9.9,0.4,9.6,5.3c0.1,12.7,0.1,25.4,0,38.1c0.4,6.1-8.5,8-11.8,3.7
			c-1.2-1.6-1.2-3.7-1.2-5.6c0-11.7,0-23.5,0-35.2C-3347.5,425.9-3346.6,423.1-3344,422.1z"/>
		<g>
			<path class="st1" d="M-3318.8,429.2c6.7-7.8,18.5-10.2,27.9-6.3c7.8,3.4,12.9,11.4,13.7,19.7c0.2,2.4,0.8,5.3-0.9,7.3
				c-1.3,1.6-3.6,1.5-5.5,1.6c-9.4,0-18.8-0.1-28.2,0c0.9,3,2.1,6.3,5.2,7.8c5.1,2.4,11.7,2,16.2-1.7c2.1-1.5,4-3.9,6.8-3.5
				c2.4,0,4.7,1.8,5,4.2c0.8,3-1.5,5.6-3.6,7.5c-6.6,6-16.4,7-24.8,5.2c-7.8-1.7-14.3-7.8-16.7-15.4
				C-3326.4,446.9-3325.2,436.3-3318.8,429.2z M-3311.3,440.4c7.3,0.1,14.6,0.1,21.9,0c-1.3-3.1-3.3-6.2-6.5-7.4
				C-3302,430.3-3310,433.6-3311.3,440.4z"/>
		</g>
		<path class="st1" d="M-3267.3,426.4c0.8-6.5,11.3-6.5,12.9-0.4c8-7.7,22.6-6.3,29,2.7c7.9-9.7,25.3-10.7,33.1-0.4
			c5,6.6,4.3,15.3,4.3,23.1c-0.2,5.3,0.4,10.7-0.3,16c-1.5,5.6-11.4,5.4-12.4-0.4c-0.9-9.2,0.6-18.5-0.8-27.6
			c-1.6-7.4-12.5-8.1-16.8-2.8c-3.8,4-2.6,9.9-2.8,14.9c-0.2,5.3,0.4,10.6-0.3,15.9c-1.5,5.6-11.2,5.4-12.5-0.2
			c-1-9.1,0.5-18.5-0.8-27.6c-0.9-4.8-6.2-7.1-10.7-6.3c-4.8,0.3-8.6,4.7-8.8,9.4c-0.4,8,0.2,15.9-0.3,23.9
			c-0.6,6-10.4,6.7-12.4,1.3c-0.9-3-0.4-6.3-0.5-9.4C-3267.4,447.8-3267.8,437.1-3267.3,426.4z"/>
		<path class="st1" d="M-3716.7,495.7c2.2-0.6,5.7-1.7,6.9,1.1c1,3.4-2.8,5.1-5.2,6.4c-0.8-2.9,3.2-3.4,2.7-5.8
			C-3714.1,497.6-3716.3,498.2-3716.7,495.7z"/>
		<path class="st1" d="M-3249,501.4c1.3-1.8,2.4-4.1,4.5-5c1.6-0.1,3.1-0.2,4.7-0.2c-2.3,2.1-4.6,4.1-7,6.2
			C-3247.3,502.1-3248.4,501.6-3249,501.4z"/>
		<path class="st1" d="M-3803,499.1c1.5,0,3.1,0,4.6,0c-0.7,5.3-1.2,10.6-2,15.9c2.4-2.9,5.7-5.8,9.8-5.2c3.3,0.2,5.1,3.6,4.9,6.6
			c-0.2,6.1-1.4,12.1-2,18.2c-1.5,0-3.1,0-4.6,0c0.5-6.1,1.8-12.1,1.9-18.2c0-3.6-4.7-3.4-6.5-1.3c-5.8,4.8-4.6,12.8-5.8,19.4
			c-1.5,0-3.1,0-4.6,0C-3805.9,522.8-3804.5,510.9-3803,499.1z"/>
		<path class="st1" d="M-3648.2,534.6c1.4-11.9,2.8-23.7,4.3-35.6c1.5,0,3.1,0,4.6,0c-0.7,5.3-1.2,10.6-2,15.9
			c2.4-2.8,5.6-5.7,9.7-5.2c3.3,0.2,5.2,3.6,5,6.6c-0.2,6.1-1.4,12.1-2,18.2c-1.5,0-3.1,0-4.6,0c0.6-6,1.8-12,1.9-18.1
			c0.1-3.7-4.6-3.5-6.5-1.4c-5.8,4.8-4.6,12.9-5.8,19.5C-3645.1,534.6-3646.6,534.6-3648.2,534.6z"/>
		<path class="st1" d="M-3604.3,499.8c1.7-0.2,3.4-0.2,5.1-0.2c-3.1,2.7-5.3,7.8-10.1,7.2C-3607.7,504.4-3606.5,501.6-3604.3,499.8z
			"/>
		<path class="st1" d="M-3565.3,499.1c1.5,0,3.1,0,4.6,0c-0.6,5.3-1.2,10.6-2,15.9c2.5-2.9,5.9-5.9,10.1-5.1
			c3.5,0.5,4.9,4.4,4.6,7.6c-0.4,5.7-1.4,11.4-2,17.2c-1.5,0-3.1,0-4.6,0c0.5-6.1,1.8-12,1.9-18.1c0.2-2-1.8-3.4-3.7-2.8
			c-3.3,0.9-5.5,4.1-6.7,7.2c-1.2,4.5-1.2,9.2-1.9,13.7c-1.6,0-3.1,0.1-4.7,0.1C-3568.2,522.8-3566.7,510.9-3565.3,499.1z"/>
		<path class="st1" d="M-3534.5,499.6c1.8,0.2,3.7-0.4,5.3,0.5c1.3,2,2.1,4.3,3.1,6.5c-0.8,0-2.5,0-3.4-0.1
			C-3531.1,504.3-3532.8,501.9-3534.5,499.6z"/>
		<path class="st1" d="M-3429.2,499.1c1.5,0,3.1,0,4.6,0c-0.7,5.3-1.2,10.6-2,16c2.4-3,5.8-5.8,9.9-5.2c3.2,0.3,4.9,3.8,4.8,6.7
			c-0.3,6-1.4,12-2,18c-1.6,0-3.1,0-4.6,0c0.5-6.4,2.1-12.7,1.8-19.1c-0.9-3.2-5.1-1.9-6.7,0c-5.3,4.8-4.3,12.6-5.3,19
			c-1.6,0-3.2,0.1-4.7,0.1C-3432.1,522.8-3430.7,510.9-3429.2,499.1z"/>
		<path class="st1" d="M-3353.4,499.1c1.5,0,3.1,0,4.6,0c-0.7,5.3-1.2,10.6-2,15.9c2.5-3,5.9-5.9,10.1-5.1c3.5,0.5,4.9,4.4,4.6,7.6
			c-0.5,5.6-1.2,11.3-2,16.9c-1.5,0.5-3.1,0.2-4.6,0.3c0.6-5.8,1.5-11.5,1.9-17.2c0.1-1.5-0.3-3.4-2-3.8c-2.6-0.6-4.8,1.4-6.3,3.3
			c-4,5-2.8,11.8-4.2,17.7c-1.5-0.1-3-0.1-4.5-0.1C-3356.2,522.8-3354.8,510.9-3353.4,499.1z"/>
		<path class="st1" d="M-3291,499.1c1.5,0,3.1,0,4.6,0c-0.6,5.3-1.2,10.6-2,15.9c2.4-2.9,5.7-5.8,9.8-5.2c3.3,0.2,5.1,3.6,4.9,6.6
			c-0.3,6.1-1.4,12.1-1.9,18.2c-1.6,0-3.1,0-4.6,0c0.6-5.8,1.5-11.5,1.9-17.2c0.3-2-1-4.3-3.2-3.8c-3.7,0.6-6,4.1-7.3,7.3
			c-1.1,4.5-1.2,9.1-1.9,13.7c-1.6,0-3.1,0-4.6,0C-3293.9,522.8-3292.5,510.9-3291,499.1z"/>
		<path class="st1" d="M-3954,534.6c1.4-11.5,2.8-23,4.3-34.5c1.5-0.1,3-0.1,4.5-0.1c3.6,7.8,6.3,16,9.4,24
			c4.6-7.6,9.3-15.2,14.1-22.7c1.1-2,3.8-1,5.6-1.3c-1.4,11.5-2.8,23.1-4.3,34.6c-1.4,0-2.8,0-4.3,0c1-8.9,2.3-17.7,3.2-26.6
			c-4.3,6.8-8.4,13.9-12.9,20.7c-0.7,1.5-3.6,1.6-4.1-0.1c-2.8-6.9-5.3-13.9-8-20.8c-1.1,9-2.2,17.9-3.3,26.9
			C-3951.2,534.6-3952.6,534.6-3954,534.6z"/>
		<path class="st1" d="M-3728.2,506.5c1.9-2.2,3.8-4.3,5.7-6.4c1.3,0,2.7,0,4,0c1.4,2.1,2.8,4.3,4.3,6.4c-0.9,0-2.6,0-3.4,0
			c-1-1.3-2.1-2.6-3.1-3.9c-1.3,1.3-2.6,2.6-3.9,3.9C-3725.5,506.5-3727.3,506.5-3728.2,506.5z"/>
		<path class="st1" d="M-3261.7,506.6c2.8-2.9,5-7.8,9.8-6.6c1.4,2.2,2.8,4.3,4.2,6.5c-0.9,0-2.7,0-3.5-0.1c-1-1.3-2-2.6-2.9-3.9
			C-3256.2,504.8-3258.4,507.3-3261.7,506.6z"/>
		<path class="st1" d="M-3591.5,502.4c0.8,0,2.5-0.1,3.3-0.1c-0.4,2.8-0.7,5.5-1,8.3c2.1,0,4.2,0,6.3,0c-0.1,0.8-0.3,2.5-0.4,3.4
			c-2.1,0-4.2,0-6.3,0c-0.6,5.2-1.5,10.3-1.8,15.5c0.4,2.8,3.6,1.4,5.2,0.7c0.3,0.7,1,2.1,1.4,2.8c-2.5,1.5-5.6,2.9-8.6,1.6
			c-2-0.8-2.8-3.1-2.6-5c0.4-5.2,1.3-10.4,1.8-15.5c-0.8,0-2.4,0-3.2,0c0-1,0-1.9,0-2.9c1.3-0.2,2.5-0.4,3.8-0.5
			C-3592.9,507.8-3592.2,505.1-3591.5,502.4z"/>
		<path class="st1" d="M-3238.6,502.4c0.8,0,2.5,0,3.3-0.1c-0.3,2.8-0.7,5.5-1,8.3c2.1,0,4.2,0,6.3,0c-0.1,0.8-0.3,2.5-0.4,3.4
			c-2.1,0-4.2,0-6.4,0c-0.5,5.2-1.5,10.3-1.7,15.5c0.3,2.8,3.6,1.4,5.1,0.7c0.3,0.7,1,2.1,1.4,2.8c-2.5,1.5-5.6,2.9-8.5,1.7
			c-2-0.8-2.9-3-2.7-5c0.3-5.2,1.2-10.4,1.8-15.6c-1.1-0.1-2.3-0.1-3.4-0.2c0.1-0.7,0.1-2.1,0.2-2.8c1.2-0.2,2.5-0.4,3.8-0.5
			C-3240,507.8-3239.3,505.1-3238.6,502.4z"/>
		<g>
			<path class="st1" d="M-3902.7,510.4c3.3-1,6.9-0.5,10.2,0.3c-0.9,8-2,16-2.9,24c-1.3-0.1-2.6-0.3-4-0.4c0.1-1.9,0.2-3.7,0.4-5.6
				c-2,2.9-4.6,6.1-8.4,6.2c-2.8,0.3-5.4-1.8-6.1-4.4C-3916.2,522.4-3911,512.7-3902.7,510.4z M-3909,529.1c0.9,2.5,4.3,2.5,5.9,0.7
				c4.6-4.3,5.2-10.9,5.7-16.7C-3905.7,512.1-3911.7,521.8-3909,529.1z"/>
		</g>
		<path class="st1" d="M-3882.9,515.7c2.4-3.2,5.9-6.5,10.3-5.9c3.2,0.2,5,3.6,4.9,6.6c-0.2,6.1-1.4,12.1-1.9,18.2
			c-1.6,0-3.1,0-4.6,0c0.6-5.8,1.5-11.5,1.9-17.2c0.2-1.5-0.4-3.5-2.2-3.7c-2.6-0.3-4.8,1.6-6.2,3.6c-3.8,4.9-2.9,11.6-4,17.4
			c-1.5,0-3.1,0-4.6,0c1-8.2,2-16.4,2.9-24.6c1.3,0.1,2.6,0.2,3.9,0.3C-3882.7,512.1-3882.8,513.9-3882.9,515.7z"/>
		<g>
			<path class="st1" d="M-3857.2,510.7c5.3-2.5,10.7,1.3,16.2,0.3c0,2.5-2.1,3-4.1,3.5c0.6,3.5-0.9,6.8-2.7,9.7
				c-3,4.3,3.8,7.7,2,12.2c-2.1,7-11.5,8.4-17.4,5.7c-3.6-1.4-4.4-6.4-1.7-9c3.4-3.3,8.5-3.3,12.9-3c0.1-1.5,0.3-3,0.4-4.5
				c-2.9,1-6.6,1.4-9-1C-3864.3,520.4-3862.3,512.9-3857.2,510.7z M-3856.1,514c-2.7,2.2-3.4,8.3,0.7,9.4c4.6,1,7.4-5,5.6-8.6
				C-3851,512.5-3854.3,512.5-3856.1,514z M-3860.8,534.3c-1.6,1-1.8,3.5-0.3,4.7c4.4,3,12.6,0.3,11.2-5.9
				C-3853.5,532.8-3857.6,532.1-3860.8,534.3z"/>
		</g>
		<path class="st1" d="M-3819.8,510.3c3.7-1.3,7.7-0.1,10.4,2.7c-0.7,0.9-1.4,1.8-2.1,2.7c-2.2-1.3-4.8-2.9-7.4-1.6
			c-4.2,2-5.8,7.2-5.6,11.6c0,2.5,1.5,5.3,4.2,5.7c3.1,0.6,5.5-1.6,7.8-3.2c0.6,0.7,1.3,1.4,1.9,2.2c-2.3,2.1-4.7,4.4-8,4.6
			c-3.8,0.7-8.1-0.9-9.6-4.7C-3831.1,522.9-3827.6,512.9-3819.8,510.3z"/>
		<g>
			<path class="st1" d="M-3726.6,511.4c3.5-2,8.6-2.4,11.6,0.6c2.4,2.5,1.7,7-1.3,8.7c-3.9,2.4-8.5,2.7-12.9,3.4
				c0.3,2.5,0.4,5.8,3.2,6.8c3.5,1.5,7-0.7,9.7-2.8c0.6,0.4,1.8,1.2,2.4,1.6c-3.8,5.5-13.2,7.7-17.8,2
				C-3735.8,525.1-3733,515.4-3726.6,511.4z M-3728.8,521c3.5-0.7,7.7-0.7,10.5-3.3c1.6-1.7,0.2-4.5-2.1-4.5
				C-3725,512.7-3727.6,517.2-3728.8,521z"/>
		</g>
		<path class="st1" d="M-3704,515.7c2.4-3.2,5.9-6.5,10.3-5.9c3.2,0.3,5,3.6,4.9,6.6c-0.2,6.1-1.4,12.1-1.9,18.2c-1.6,0-3.1,0-4.6,0
			c0.6-5.7,1.5-11.4,1.9-17.2c0.2-1.5-0.4-3.5-2.1-3.7c-2.6-0.4-4.8,1.5-6.2,3.4c-3.9,4.9-3,11.6-4,17.5c-1.6,0-3.1,0-4.6,0
			c1-8.2,2-16.4,2.9-24.6c1.3,0.1,2.6,0.3,3.9,0.4C-3703.7,512.2-3703.8,514-3704,515.7z"/>
		<g>
			<path class="st1" d="M-3667.2,516.3c2.3-3.2,5.4-6.8,9.7-6.5c3.1-0.1,5.5,2.7,5.9,5.6c1.2,6.8-1.3,14.8-7.5,18.5
				c-3.2,1.9-7.2,1-10-1.2c-0.3,3.4-0.7,6.8-1.2,10.2c-1.5,0-3,0-4.5,0c1.3-10.9,2.7-21.9,4-32.8c0.9,0,2.8,0.1,3.8,0.1
				C-3667,512.2-3667.1,514.3-3667.2,516.3z M-3661.9,514.2c-4.9,3.4-6.4,9.7-6.7,15.3c2.2,1.7,5.5,2.7,7.9,0.8
				c4-3.2,5.4-8.9,4.5-13.8C-3656.5,513.9-3659.8,512.6-3661.9,514.2z"/>
		</g>
		<g>
			<path class="st1" d="M-3533.4,510.6c3.5-1.3,7.3-0.8,10.8,0.1c-0.9,8-1.9,16-2.9,24c-1.3-0.1-2.7-0.2-4-0.4
				c0.1-1.9,0.2-3.7,0.4-5.6c-2,2.9-4.7,6.1-8.5,6.2c-2.8,0.2-5.3-1.9-6.1-4.5C-3546.1,522.6-3541.2,513.2-3533.4,510.6z
				 M-3539,529.2c0.9,2.5,4.3,2.5,5.8,0.7c4.7-4.3,5.2-10.9,5.8-16.8C-3535.7,512.1-3541.7,521.8-3539,529.2z"/>
		</g>
		<path class="st1" d="M-3512.8,515.7c2.4-3.3,5.9-6.5,10.2-5.9c3.2,0.2,5,3.7,4.9,6.6c-0.3,6.1-1.3,12.1-1.9,18.2
			c-1.6,0-3.1,0-4.6,0c0.6-5.7,1.5-11.4,1.9-17.2c0.3-1.9-1-4.2-3.1-3.8c-3.8,0.6-6,4.2-7.4,7.5c-1.2,4.4-1.2,9-1.9,13.5
			c-1.5,0-3.1,0-4.6,0c1-8.2,2-16.4,2.9-24.6c1.3,0.1,2.6,0.2,3.8,0.3C-3512.6,512.1-3512.7,513.9-3512.8,515.7z"/>
		<g>
			<path class="st1" d="M-3487.2,510.8c5.2-2.6,10.6,1.3,16,0.2c-0.1,0.6-0.2,1.8-0.2,2.4c-1.2,0.3-2.4,0.6-3.6,1
				c0.8,3.8-1.1,7.2-2.9,10.4c-2.1,4.2,4,7.3,2.3,11.6c-2.1,7-11.5,8.4-17.4,5.7c-3.6-1.4-4.4-6.4-1.7-9c3.4-3.3,8.5-3.3,12.9-3
				c0.1-1.5,0.3-3,0.4-4.5c-2.9,1-6.7,1.4-9-1.1C-3494.3,520.4-3492.3,512.9-3487.2,510.8z M-3485.3,513.5c-3.4,1.8-4.4,8.5-0.1,9.9
				c4.6,1,7.5-5,5.7-8.7C-3480.8,512.8-3483.5,512.6-3485.3,513.5z M-3490.1,533.8c-1.7,0.8-2.6,2.9-1.5,4.6
				c4,3.9,13.4,1.1,11.8-5.3C-3483.2,532.8-3486.9,532.2-3490.1,533.8z"/>
		</g>
		<path class="st1" d="M-3452.6,515.7c2.3-3.2,5.7-6.4,9.9-5.9c3.4,0.1,5.3,3.6,5.1,6.7c-0.2,6.1-1.4,12.1-1.9,18.1
			c-1.5,0-3.1,0-4.6,0c0.6-6,1.7-12,1.9-18c0.2-2.2-2.2-3.6-4.1-2.7c-3.4,1.3-5.5,4.8-6.6,8.1c-0.8,4.2-1,8.5-1.6,12.7
			c-1.6,0-3.1,0-4.6,0c1-8.2,2-16.4,2.9-24.5c1.3,0.1,2.5,0.1,3.8,0.2C-3452.4,512.1-3452.5,513.9-3452.6,515.7z"/>
		<g>
			<path class="st1" d="M-3403.4,514.6c4.2-4.8,11.1-5.7,16.9-3.9c-0.8,8-1.9,16-2.9,24c-0.9,0-2.8,0-3.8,0c-0.1-2,0-3.9,0.2-5.8
				c-2.3,4.2-8.1,8.6-12.6,4.8C-3410.3,528.1-3408,519.4-3403.4,514.6z M-3402.7,529.6c1.1,2.1,4.1,1.9,5.6,0.4
				c4.7-4.2,5.3-10.9,5.8-16.8C-3399.8,512-3405.9,522.2-3402.7,529.6z"/>
		</g>
		<path class="st1" d="M-3376.7,515.7c2.3-3.2,5.8-6.5,10.1-5.9c3.3,0.2,5.1,3.6,5,6.6c-0.2,6.1-1.4,12.1-1.9,18.1
			c-1.6,0-3.1,0-4.6,0c0.5-6.1,1.7-12.1,1.9-18.2c0-3.6-4.6-3.3-6.4-1.3c-5.8,4.7-4.8,12.8-5.9,19.5c-1.5,0-3.1,0-4.6,0
			c1-8.2,2-16.4,2.9-24.6c1.3,0.1,2.5,0.2,3.8,0.3C-3376.6,512.1-3376.6,513.9-3376.7,515.7z"/>
		<path class="st1" d="M-3314.4,515.8c2.3-3.2,5.7-6.4,9.9-6c3.4,0,5.4,3.6,5.2,6.7c-0.3,6.1-1.4,12.1-1.9,18.1c-1.5,0-3.1,0-4.6,0
			c0.6-5.4,1.3-10.8,1.8-16.2c0.1-1.7,0.2-4.2-1.8-4.7c-2.8-0.6-5.2,1.6-6.7,3.7c-3.7,4.9-2.7,11.4-3.8,17.1c-1.6,0-3.1,0-4.6,0
			c1-8.2,2-16.4,2.9-24.5c1,0,2.9,0.1,3.8,0.2C-3314.2,512.1-3314.3,513.9-3314.4,515.8z"/>
		<path class="st1" d="M-3779,510.1c1.5,0,3.1,0,4.6,0c-0.6,5.5-1.4,10.9-1.9,16.4c-0.1,1.5-0.2,3.6,1.5,4.4c2.6,0.9,5.1-1.1,6.6-3
			c4.1-5,3-11.8,4.2-17.7c1.5,0,3.1,0,4.6,0c-1,8.2-2,16.4-2.9,24.6c-1.3,0-2.6-0.2-3.8-0.7c-0.1-1.6-0.1-3.3,0.1-4.9
			c-2.4,3.3-6.1,6.5-10.5,5.6c-3.3-0.6-4.7-4.3-4.5-7.3C-3780.6,521.7-3779.6,515.9-3779,510.1z"/>
		<path class="st1" d="M-3755.8,510.2c1.5,0,3-0.1,4.6-0.1c1.9,5.8,3.2,11.8,4.6,17.7c2.9-5.9,5.7-11.9,8.9-17.6
			c1.4,0,2.9,0,4.3,0.1c-5.7,10.9-11.3,21.9-17.1,32.7c-1.5,0-3,0-4.4,0.1c1.8-3.3,3.5-6.5,5.3-9.7
			C-3751.5,525.5-3753.7,517.8-3755.8,510.2z"/>
		<g>
			<path class="st1" d="M-3622,531c-3-8.5,2.8-18.9,11.6-20.8c3.1-0.8,6.3-0.1,9.3,0.5c-0.9,8-2,15.9-2.9,23.9
				c-1.3,0-2.6,0.1-3.9,0.1c0-2,0-3.9,0.2-5.8c-1.9,2.7-4.3,5.7-7.8,6.1C-3618.3,535.4-3621.1,533.6-3622,531z M-3617.4,529.4
				c1.1,2.4,4.5,2,6,0.3c4.4-4.3,5-10.8,5.5-16.5C-3614.4,512.1-3620.4,522.1-3617.4,529.4z"/>
		</g>
		<g>
			<path class="st1" d="M-3269.1,531.2c-3.2-8.6,2.7-19.1,11.6-21c3.1-0.8,6.2-0.1,9.2,0.6c-0.9,8-1.9,15.9-2.9,23.9
				c-0.9,0-2.8,0-3.8,0c-0.1-1.9,0-3.9,0.2-5.8c-1.9,2.7-4.3,5.7-7.8,6.1C-3265.3,535.4-3268.1,533.7-3269.1,531.2z M-3264.5,529.5
				c1,2.2,4,2.1,5.6,0.5c4.8-4.2,5.4-11,5.9-16.9C-3261.5,512.1-3267.6,522.1-3264.5,529.5z"/>
		</g>
		<path class="st1" d="M-3906.1,537.8c2.1-0.7,4.3,1.5,3.6,3.6c-0.4,2.3-4,3.2-5.2,1C-3908.8,540.9-3907.9,538.4-3906.1,537.8z"/>
	</g>
	<g>
		<path class="st0" d="M-3560.5-57.6c19.2-2.6,39.6-0.9,57,8.1c12,6.1,22,17.1,24.3,30.7c-27.6,15.9-58,26.5-88.9,33.6
			c-22.1,5.1-44.7,8.4-67.4,10.1c-1.6,0-3.3,0.4-4.8-0.2c-3.5-6.3-3.6-13.9-2.6-20.8c2.6-14.6,12.2-27,23.4-36.4
			C-3602.8-46.3-3581.9-54.5-3560.5-57.6z"/>
		<path class="st0" d="M-3662.2,134.8c7.4-11.6,16.5-22.1,26.9-31.1c11.6,15.8,28.8,26.9,47.6,32.2c31.2,9.1,65.7,3.5,93.4-13
			c0.8,2.3,1.7,4.5,2.5,6.8c-7.7,5.8-15.4,11.6-23.1,17.4c-1.9,1.2-3.1,3.3-2.9,5.6c0,8.9,0,17.9,0,26.8
			c-6.8-4.6-13.4-9.5-20.2-14.1c-4.9-3.3-11.9-1.2-15.2,3.4c-3.7,4.7-3.6,12.5,1.5,16.1c11.2,8.1,22.7,15.8,33.9,24
			c-0.1,11.6,0.1,23.2-0.1,34.8c0.1,2.2-2,3.6-3.3,5.2c-11.4,12.8-26.3,23-43.2,26.7c-17.8,4.1-36.6,0.6-53-6.8
			c6-9.4,12.1-18.7,18.2-28c3.4-5,2.6-12.4-1.8-16.5c-4-4-10.8-4.8-15.6-1.9c-2.7,1.5-4.4,4.2-6.1,6.8c-5.6,8.9-11.5,17.6-17.1,26.5
			c-11.5-7.8-21.5-18-28.8-29.9c-8-13.1-12-28.8-10.7-44.2C-3678.1,164.7-3671.2,148.8-3662.2,134.8z"/>
	</g>
	<g>
		<path class="st2" d="M-3619.6,37.4c52.7-5.9,105.4-19.4,151.2-46.8c8.2,2.3,16.3,5.1,24,8.7c4.4,2.1,8.9,4.4,12,8.2
			c-5.5,5.7-13.4,7.7-20.5,10.5c-33.1,11.8-67.5,19.7-102.5,23.1C-3576.7,42.9-3598.8,43.2-3619.6,37.4z"/>
	</g>
	<g>
		<g>
			<path class="st3" d="M-3567.6,55.6c35-1.6,69.6-8.9,103-19.3c3.5,22.1-6.7,44.5-22.7,59.4c-3.1,1.9-6.6,2.8-10,4.1
				c-12.2,3.9-25.5,6-38,2.5c-8-2.2-15.1-7.3-19.9-14c-2.8,2-5.6,4-8.4,5.9c6.6,9.9,17.3,16.6,28.9,18.9c6.6,1.4,13.5,1.6,20.2,1.1
				c-20.5,9-43.9,11.7-65.7,6.2c-15.8-4-30.7-12.6-40.6-25.7c-10.1-13.1-14.1-30.5-10.7-46.6C-3611.1,55.3-3589,56.5-3567.6,55.6z
				 M-3490.1,57.9c-5.4,3-4.1,12,1.8,13.6c4.8,1.8,9.7-3.3,8.6-8.1C-3480.2,58.7-3485.9,55.3-3490.1,57.9z M-3548.3,67.6
				c-5.3,2.7-4.6,11.4,0.9,13.6c4.4,2.2,9.7-1.9,9.4-6.7C-3537.8,69.4-3543.6,65-3548.3,67.6z"/>
		</g>
	</g>
	<g>
		<path class="st4" d="M-3472.3,129.7c1-0.9,2.4-1.1,3.7-1c27.2,0,54.4,0,81.7,0c-7.3,5.5-14.6,11-21.9,16.5c-1,0.9-2.3,1.1-3.6,1
			c-27.3,0-54.5,0-81.8,0C-3486.9,140.7-3479.6,135.2-3472.3,129.7z"/>
		<path class="st4" d="M-3402.1,155.1c9.1-6.8,18.1-13.6,27.2-20.4c-0.1,29.7,0.1,59.4-0.1,89.1c-9.1,6.7-18.1,13.6-27.2,20.3
			C-3402.1,214.4-3402.1,184.8-3402.1,155.1z"/>
		<path class="st4" d="M-3506.1,187.7c0-9.9,0-19.8,0-29.6c30.7,0,61.4,0,92,0c0,30.7,0,61.4,0,92c-30.7,0-61.4,0-92.1,0
			c0-11.1,0-22.1,0-33.2c3.4,2.9,7.6,6.4,12.5,4.8c11.7-4,23.3-8.3,34.9-12.5c6.3-2.4,7.9-10.9,4.9-16.4c-2.3-4.9-8.2-8.3-13.5-6.3
			c-9,3.1-17.9,6.5-26.9,9.6C-3498.1,193.3-3502.1,190.5-3506.1,187.7z"/>
	</g>
	<g>
		<path class="st5" d="M-3652.5,353.5c31.7-0.7,63.4-0.8,95.1-0.1c19.6,0.5,39.3,0.9,58.9,2.7c3.9,0.5,7.9,0.6,11.6,1.9
			c0.2,0.3,0.6,0.9,0.9,1.2c-10.6,2.6-21.5,2.6-32.3,3.4c-47.3,2.1-94.8,2.1-142.2,0.9c-15.4-0.5-30.7-1-46-2.5
			c-3.7-0.5-7.6-0.6-10.9-2.4c4.4-2,9.2-2.1,13.9-2.6C-3686.6,354.5-3669.6,354-3652.5,353.5z"/>
	</g>
</g>
<g>
	<g>
		<path class="st1" d="M-1793.5-48.2c19.7-2.5,40.1-1,58.6,6.6c13.8,5.6,26.4,15.1,33.8,28.2c3.3,5.6,5.1,11.8,6.6,18
			c10.9,3.2,21.8,6.9,31.4,13c4.7,3.1,9.5,7.1,11.3,12.7c1.7,5.1-0.3,10.8-4,14.4c-6.7,6.6-15.9,9.3-24.5,12.6
			c2.7,13.8,1.4,28.3-3.4,41.5c-5.7,15.7-16,29.4-28.6,40.2c0.9,2.1,1.7,4.1,2.6,6.2c1.6-0.9,3.3-2.1,5.2-1.9c34.7,0,69.4,0,104.1,0
			c3.4,0,5.9,3.4,5.5,6.6c0,34,0,68,0,101.9c0.1,2.3-0.5,4.7-2.5,6c-12,9.1-24.1,18-36,27.1c-2.1,1.5-4.2,3.7-7,3.4
			c-33.9,0-67.9,0-101.8,0c-4.9,5.3-10.3,10.1-16.1,14.4c10.9,17.4,21.8,34.7,32.7,52c6.9-3.5,13.6-7.1,20.5-10.5
			c5.4-2.4,11.7,1.2,14,6.2c2.6,4.9,1.6,12.2-3.7,14.8c-8.5,4.5-17.2,8.8-25.8,13.3c-2.8,1.5-5.5,3.4-8.8,3.5
			c-4.2,0.1-8.1-2.4-10.3-5.9c-14.2-20.1-28.6-40.1-41.2-61.3c-25.3,9.5-53.9,5.9-77.9-5.6c-4.1,6.2-8.1,12.6-12.3,18.8
			c-2.9,4.3-8.5,6.4-13.5,5.3c-14.4-2.9-28.7-5.9-43.1-8.9c-4.8,9.5-9.4,19.2-14.3,28.7c-3.1,6.1-11.5,7.2-17.1,4.1
			c-5.6-2.7-9.4-9.8-6.5-15.8c5.3-10.9,10.8-21.8,16.2-32.7c1.7-3.5,2.7-7.6,5.9-10.2c2.4-2.2,5.9-2.9,9.1-2
			c15.5,3.3,31.1,6.3,46.6,9.7c2.3-3.3,4.5-6.7,6.7-10.1c-14.1-10-26.5-22.5-35.1-37.6c-7.6-13.3-12-28.5-12.1-43.9
			c-0.2-18,5.1-35.7,13.4-51.6c9.7-18.5,23.2-35,39.3-48.4c-6.3-14.9-7.4-31.8-3.6-47.5c-5.3-3.8-9.2-9.3-11-15.6
			c-4.2-14.4-1.4-30.2,5.6-43.3c7.2-13.7,18.4-25.1,31-34C-1836-37.8-1815-45.4-1793.5-48.2z M-1792.5-31.2
			c-21.4,3.1-42.2,11.3-58.9,25.2c-11.2,9.4-20.8,21.7-23.4,36.4c-1.1,6.9-0.9,14.6,2.6,20.8c1.5,0.6,3.2,0.2,4.8,0.2
			c22.7-1.7,45.2-5,67.4-10.1c30.9-7.2,61.3-17.7,88.9-33.6c-2.2-13.6-12.3-24.6-24.3-30.7C-1752.9-32.1-1773.3-33.8-1792.5-31.2z
			 M-1851.6,63.8c20.8,5.8,42.9,5.5,64.3,3.7c34.9-3.4,69.4-11.3,102.5-23.1c7.1-2.9,15-4.8,20.5-10.5c-3.1-3.9-7.6-6.1-12-8.2
			c-7.7-3.6-15.8-6.4-24-8.7C-1746.2,44.4-1798.9,57.9-1851.6,63.8z M-1799.6,82c-21.5,0.9-43.5-0.3-63.9-7.6
			c-3.4,16.1,0.7,33.6,10.7,46.7c9.9,13.1,24.8,21.7,40.6,25.7c21.8,5.5,45.2,2.8,65.7-6.2c-6.7,0.5-13.6,0.4-20.2-1
			c-11.6-2.3-22.3-9-28.9-18.9c2.8-1.9,5.6-3.9,8.4-5.9c4.8,6.7,11.9,11.9,19.9,14c12.5,3.5,25.8,1.4,38-2.5c3.4-1.2,6.9-2.1,10-4.1
			c16-14.9,26.2-37.3,22.7-59.4C-1730,73-1764.5,80.4-1799.6,82z M-1894.2,161.2c-9,14.1-15.8,29.9-17.1,46.7
			c-1.3,15.4,2.6,31.1,10.7,44.2c7.3,11.9,17.3,22.1,28.8,29.9c5.5-8.9,11.4-17.6,17.1-26.5c1.6-2.6,3.3-5.3,6.1-6.8
			c4.9-3,11.6-2.2,15.7,1.9c4.4,4.1,5.2,11.5,1.8,16.5c-6,9.4-12.1,18.6-18.2,28c16.5,7.3,35.2,10.8,53.1,6.8
			c16.9-3.7,31.8-13.9,43.2-26.7c1.2-1.6,3.3-3,3.3-5.2c0.1-11.6-0.1-23.2,0.1-34.8c-11.2-8.1-22.7-15.9-33.9-24
			c-5.1-3.6-5.2-11.5-1.5-16.1c3.3-4.6,10.3-6.8,15.2-3.4c6.8,4.6,13.4,9.5,20.2,14.1c0-8.9,0-17.8,0-26.8c-0.2-2.3,1-4.3,2.8-5.6
			c7.7-5.8,15.4-11.5,23.1-17.4c-0.8-2.3-1.6-4.5-2.5-6.8c-27.7,16.6-62.2,22.1-93.4,13c-18.7-5.4-36-16.5-47.6-32.3
			C-1877.8,139-1886.8,149.6-1894.2,161.2z M-1704.3,156.1c-7.3,5.5-14.7,11-21.9,16.5c27.3,0,54.5,0,81.8,0c1.3,0,2.6-0.1,3.6-1
			c7.3-5.5,14.7-11,21.9-16.5c-27.2,0-54.4,0-81.7,0C-1701.9,155.1-1703.2,155.2-1704.3,156.1z M-1634.1,181.5c0,29.7,0,59.4,0,89
			c9.1-6.7,18.1-13.6,27.2-20.3c0.1-29.7,0-59.4,0.1-89.1C-1615.9,167.8-1625,174.7-1634.1,181.5z M-1738.1,214.1
			c4,2.8,7.9,5.5,11.9,8.4c9-3.1,17.9-6.5,26.8-9.6c5.3-2,11.2,1.4,13.5,6.3c3,5.6,1.4,14-4.9,16.4c-11.6,4.2-23.2,8.5-34.9,12.5
			c-4.8,1.6-9.1-1.9-12.5-4.8c0,11.1,0,22.1,0,33.2c30.7,0,61.4,0,92.1,0c0-30.7,0-61.4,0-92c-30.7,0-61.4,0-92,0
			C-1738.1,194.4-1738.1,204.2-1738.1,214.1z"/>
	</g>
	<path class="st1" d="M-1977,49.7c18.6-1.3,37.4-1.4,56,1c3.2,0.7,7.1,0.7,9.6,3.2c-0.3,1.4-2,1.6-3.1,2.1c-5.5,1.5-11.2,2-16.9,2.5
		c-15.6,1.1-31.3,1.1-46.9-0.2c-5.7-0.7-11.8-0.8-17-3.5c-0.3-1.8,1.7-2.1,2.9-2.6C-1987.4,50.6-1982.1,50.2-1977,49.7z"/>
	<path class="st1" d="M-1722.1,84.3c4.2-2.6,9.9,0.8,10.4,5.6c1.1,4.8-3.8,9.9-8.6,8.1C-1726.2,96.3-1727.5,87.3-1722.1,84.3z"/>
	<path class="st1" d="M-2004.6,92c18.6-2.3,37.6-2.2,56.3-0.9c6.1,0.8,12.6,0.8,18.1,3.9c-1.2,1.2-2.7,2.2-4.4,2.5
		c-8.2,1.9-16.6,2.3-24.9,2.7c-13.7,0.5-27.5,0.4-41.1-1c-4.9-0.6-10-1-14.5-3.4C-2012.6,92.6-2008.2,92.8-2004.6,92z"/>
	<path class="st1" d="M-1780.3,94c4.6-2.6,10.5,1.8,10.3,6.9c0.4,4.7-4.9,8.8-9.3,6.7C-1784.8,105.4-1785.6,96.7-1780.3,94z"/>
	<path class="st1" d="M-2041.4,235.5c13.2-1.6,26.6-1.7,39.9-1.4c9,0.3,18,0.7,26.8,2.4c2.2,0.4,4.2,1.3,6.1,2.5
		c-3.9,3.2-9.3,3.1-14,3.9c-18.9,1.9-38.1,1.9-57,0c-4.8-0.8-10.1-0.7-14-3.9C-2050,236.5-2045.6,236.1-2041.4,235.5z"/>
	<path class="st1" d="M-2007.3,271c18.2-2,36.6-2,54.9-0.6c5.9,0.6,12.1,1,17.5,3.7c-2,3.1-6.2,3-9.5,3.7c-18.9,2.5-38.1,2.4-57.1,1
		c-6.2-0.8-12.8-0.7-18.3-4.1C-2016.4,271.8-2011.6,271.7-2007.3,271z"/>
	<path class="st1" d="M-2218,434.4c6.5-7,16-10.9,25.6-11c9.6-0.3,19.9,2.6,26.4,10.1c2.9,3.2,1.2,9.5-3.4,9.8
		c-3.7,0.8-6.5-2.3-9.4-3.9c-8.4-5.1-20.4-4.8-27.8,2.2c-9.2,8.4-10.1,23.3-4.3,33.8c3.5,6.3,10.3,10.6,17.6,10.9
		c6.8,0.3,14.5-0.6,19.8-5.4c0.3-3.4,0-6.8,0.1-10.2c-5.5-0.1-11.1,0.3-16.6-0.2c-6.3-0.9-5.8-12,0.7-12c7.6-0.2,15.2-0.1,22.9-0.1
		c3.5-0.2,6.3,2.9,6,6.3c-0.1,6.6,0.5,13.3-0.3,19.9c-1.5,3.2-4.6,5.3-7.4,7.4c-8.8,5.9-20,7.2-30.3,5.6
		c-11.7-1.8-22-10.2-26.4-21.2C-2230.5,462.7-2228.6,445.3-2218,434.4z"/>
	<path class="st1" d="M-2013.5,429.8c-0.4-5.8,7.7-7.9,11.3-4.2c1.9,1.9,1.6,4.9,1.7,7.4c-0.1,6.5,0,13-0.1,19.5
		c8.3-7.9,23.7-6.4,29.9,3.4c4.7,6.7,3.9,15.2,3.9,23c-0.2,4.9,0.4,9.8-0.3,14.7c-1.3,6.1-12,5.7-12.6-0.6c-0.5-8,0.1-16-0.3-24
		c-0.2-2.7-1-5.7-3.3-7.4c-5.7-4.1-15.5-1.6-16.9,5.8c-1,8.5,0.1,17.1-0.6,25.6c-0.5,6-10.3,6.9-12.4,1.5c-0.6-1.8-0.5-3.6-0.5-5.4
		C-2013.4,469.2-2013.6,449.5-2013.5,429.8z"/>
	<path class="st1" d="M-1629.6,425.8c3.3-3.5,11.1-2.3,11.4,3.1c0.3,11.8,0,23.5,0.1,35.3c6.3-4.9,12.6-9.9,19-14.8
		c2.1-1.8,5.3-2,7.7-0.7c3.1,1.8,3.4,6.8,0.7,9.1c-4.4,3.8-9.2,7.2-13.8,10.9c4.9,6.4,10,12.8,14.9,19.2c2.1,2.6,1.9,7.2-1.1,9
		c-2.5,1.4-6.1,1.3-7.9-1.1c-5.3-6.5-10.2-13.2-15.4-19.7c-1.4,1.1-2.7,2.2-4.1,3.3c-0.2,4.8,0.4,9.6-0.3,14.3
		c-1.5,5.5-10.9,5.5-12.4,0c-0.6-3-0.3-6-0.3-9c0-17.7,0-35.3,0-53C-1631,429.8-1631.1,427.4-1629.6,425.8z"/>
	<path class="st1" d="M-2147.1,430.3c3.5-1.6,8.8-1.2,10.6,2.6c1.5,3.4,1.1,8.5-2.6,10.4c-3.6,1.7-9.2,1.1-10.8-3.1
		C-2151.1,436.9-2150.6,432.1-2147.1,430.3z"/>
	<path class="st1" d="M-1744.2,430.2c4.4-2.2,11.2,0,11.1,5.7c1,4.9-3.5,9.3-8.4,8.3C-1748.6,444.1-1750,433-1744.2,430.2z"/>
	<path class="st1" d="M-1577.1,430.4c3.6-1.8,9.3-1.3,11,2.9c1.2,3.4,0.8,8.3-2.9,10.1c-3.6,1.6-9.2,0.9-10.7-3.3
		C-1580.8,436.8-1580.4,432.3-1577.1,430.4z"/>
	<path class="st1" d="M-1777,434.4c1.4-5.8,11.6-5.5,12.5,0.5c0.5,4.6,0.1,9.2,0.2,13.8c3.2,0,6.5-0.3,9.7,0.4
		c4.4,1.5,4.4,9.1,0.1,10.6c-3.2,0.7-6.5,0.3-9.8,0.4c-0.1,10.9,0.2,21.9-0.2,32.8c-0.5,6.7-12.2,6.6-12.7-0.1
		c-0.4-10.9,0-21.8-0.2-32.7c-2.7,0-5.4,0.2-8.1-0.2c-5.2-0.9-5.2-9.9,0-10.9c2.7-0.4,5.4-0.3,8.1-0.3
		C-1777.2,443.9-1777.8,439.1-1777,434.4z"/>
	<path class="st1" d="M-1661.3,435c0.8-6.2,11.5-6.3,12.6-0.2c0.5,4.6,0.1,9.3,0.2,13.9c3.3,0.1,6.6-0.3,9.8,0.4
		c4.3,1.6,4.3,9,0,10.6c-3.2,0.7-6.5,0.3-9.8,0.4c0,10,0,19.9,0,29.9c-0.1,1.7,0.1,3.5-0.8,5c-2.6,4.7-11.5,3.7-12.1-2
		c-0.4-10.9,0-21.9-0.2-32.8c-2.9-0.1-5.9,0.3-8.8-0.4c-4.3-1.6-4.3-8.9-0.1-10.6c2.9-0.8,5.9-0.4,8.8-0.5
		C-1661.4,444.1-1661.8,439.5-1661.3,435z"/>
	<path class="st1" d="M-2146.1,448.4c2.8-1,6.5-0.7,8.4,1.8c1.5,2.3,1.1,5.1,1.2,7.7c-0.2,11.6,0.2,23.3-0.2,34.9
		c-0.5,6-10,6.8-12.3,1.7c-0.7-1.8-0.6-3.8-0.6-5.7c0.1-11.3,0-22.6,0-34C-2149.8,452.3-2148.7,449.4-2146.1,448.4z"/>
	<g>
		<path class="st1" d="M-2124.8,453.7c2.9-4.2,8.5-5,13.2-5.8c8.5-1,18.6-0.5,24.7,6.4c5,5.6,4.7,13.6,4.6,20.6
			c-0.2,6.3,0.4,12.7-0.3,19c-1.5,5.5-9.9,5.2-12.3,0.6c-7.7,5.4-19.2,5.4-26.7-0.4c-7-5.3-7.1-17-0.4-22.6c7.5-6,18.8-5.8,26.9-1.1
			c-0.3-3.5-0.7-7.8-4.1-9.7c-6.1-3.2-13.1-0.9-19.2,1C-2123,463.2-2127.1,457.7-2124.8,453.7z M-2109.1,477.3
			c-4.9,0.2-6.7,7.2-2.5,9.7c4.4,2.1,10.3,1.9,14.4-0.9c2.1-1.3,2.7-4.6,0.8-6.3C-2099.8,476.7-2104.8,476.5-2109.1,477.3z"/>
	</g>
	<g>
		<path class="st1" d="M-2054.3,448.1c8-1.6,16.9-0.1,23.1,5.5c10.4,8.9,11.2,26.5,2,36.6c-9.4,10.8-28.4,10.9-37.9,0.3
			c-9.2-9.8-8.8-26.9,1-36.1C-2062.9,451.2-2058.7,449-2054.3,448.1z M-2052.1,459.5c-10.7,3.3-11.5,20.7-2,25.9
			c5.1,2.5,12.3,1.5,15.6-3.5c3.5-5.3,3.5-12.8,0-18.1C-2041.3,459.5-2047.2,458.2-2052.1,459.5z"/>
	</g>
	<g>
		<path class="st1" d="M-1955.2,453.3c3-3.8,8.2-4.6,12.6-5.4c7.7-0.9,16.4-0.8,22.9,4.2c5.4,4.1,7,11.3,6.8,17.8
			c-0.2,7.8,0.3,15.7-0.2,23.5c-1.1,5.8-9.9,5.9-12.3,1c-8.1,5.5-20.1,5.5-27.6-1c-6.6-5.8-6-17.7,1.3-22.7
			c7.6-5.1,18.1-4.8,25.9-0.4c-0.2-3.6-0.7-8-4.3-9.8c-6.2-3.1-13.2-0.6-19.4,1.2C-1954.2,462.9-1957.9,457.1-1955.2,453.3z
			 M-1940.1,477.4c-4.8,0.4-6.1,7.7-1.9,9.8c4.6,1.9,10.4,1.8,14.4-1.4c2-1.4,2.3-4.6,0.3-6.2
			C-1930.7,476.6-1935.8,476.5-1940.1,477.4z"/>
	</g>
	<path class="st1" d="M-1899.2,449.2c3.7-2.6,9.5-1.2,10.9,3.3c8.5-8.1,24.3-6.2,30.2,4.1c4.5,7,3.3,15.6,3.4,23.4
		c-0.1,4.5,0.3,9.1-0.3,13.6c-1.3,6.1-12,5.7-12.6-0.6c-0.5-8,0.1-16-0.2-24c-0.2-3-1.2-6.3-4-7.9c-2.9-1.7-6.6-1.8-9.7-0.9
		c-3.9,1.2-6.6,5-6.8,9c-0.4,7.9,0.2,15.9-0.3,23.8c-0.5,6-10.4,6.8-12.4,1.4c-0.6-1.7-0.5-3.6-0.5-5.4c0-11,0-22.1,0-33.1
		C-1901.5,453.5-1901.3,450.7-1899.2,449.2z"/>
	<g>
		<path class="st1" d="M-1840.5,455.9c7.5-9.7,23.6-11.4,32.6-3c0.9-2.8,3.2-5.3,6.4-4.9c3.4-0.3,6.6,2.5,6.3,6
			c0.1,13.3,0.1,26.6,0,39.9c-0.1,7.5-3,15.6-9.8,19.6c-8.2,4.7-18.4,4.6-27.3,2.3c-3.8-1.4-8.4-2.5-10.6-6.2c-2.1-4,2-9,6.3-7.9
			c3.7,1.3,7,3.7,11,4.2c4.6,0.7,9.7,0.6,13.6-2.2c3.7-2.9,3.6-8,3.8-12.2c-7,6.4-18.1,6.8-26.2,2.2
			C-1847.1,486.3-1849.4,467.1-1840.5,455.9z M-1824.1,459.4c-9,2.4-11.3,15.1-5.5,21.7c4,4.9,12,5.4,16.8,1.5
			c6.3-5.1,6.3-16.2-0.1-21.2C-1816.1,458.9-1820.4,458.4-1824.1,459.4z"/>
	</g>
	<path class="st1" d="M-1743.2,448.3c2.6-0.8,5.9-0.6,7.8,1.5c1.5,1.6,1.5,4,1.5,6c0,11.4,0,22.7,0,34.1c0,2,0,4.4-1.5,6
		c-3.6,3.8-11.9,1.9-11.5-4.1c-0.2-12.3,0-24.7-0.1-37C-1747.1,452.2-1745.9,449.2-1743.2,448.3z"/>
	<g>
		<path class="st1" d="M-1718.6,455.9c7-8.5,20.1-10.9,29.8-5.8c8.4,4.6,12.9,14.5,12.2,23.9c-0.1,2.5-2.6,4.1-4.9,3.9
			c-9.9,0.2-19.8,0-29.7,0.1c0.8,2.9,2,6.2,5,7.7c6,3.1,13.6,1.6,18.3-3.1c2.6-3,8.3-2.6,9.6,1.4c1.1,2.8-0.5,5.7-2.6,7.6
			c-6.6,6.6-16.8,7.9-25.6,6c-7.9-1.7-14.5-8-16.8-15.8C-1725.9,473.1-1724.7,462.9-1718.6,455.9z M-1710.8,466.8
			c7.3,0.1,14.6,0.1,21.9,0c-1.7-5.2-6.9-9.2-12.5-8.2C-1706.2,458.7-1709.7,462.5-1710.8,466.8z"/>
	</g>
	<path class="st1" d="M-1576,448.5c3.9-1.9,9.9,0.4,9.6,5.3c0.1,12.7,0.1,25.4,0,38.1c0.4,6.1-8.5,8-11.8,3.7
		c-1.2-1.6-1.2-3.7-1.2-5.6c0-11.7,0-23.5,0-35.2C-1579.5,452.3-1578.6,449.5-1576,448.5z"/>
	<g>
		<path class="st1" d="M-1550.8,455.6c6.7-7.8,18.5-10.2,27.9-6.3c7.8,3.4,12.9,11.4,13.7,19.7c0.2,2.4,0.8,5.3-0.9,7.4
			c-1.3,1.6-3.6,1.5-5.5,1.6c-9.4,0-18.8-0.1-28.2,0c0.9,3,2.1,6.3,5.2,7.8c5.1,2.4,11.7,2,16.2-1.7c2.1-1.5,4-3.9,6.8-3.5
			c2.4,0,4.7,1.8,5,4.2c0.8,3-1.5,5.6-3.6,7.5c-6.6,5.9-16.4,7-24.8,5.2c-7.8-1.7-14.3-7.8-16.7-15.4
			C-1558.4,473.3-1557.2,462.7-1550.8,455.6z M-1543.3,466.8c7.3,0.1,14.6,0.1,21.9,0c-1.3-3.1-3.3-6.1-6.5-7.4
			C-1534,456.7-1542,459.9-1543.3,466.8z"/>
	</g>
	<path class="st1" d="M-1499.3,452.8c0.8-6.5,11.3-6.5,12.9-0.4c8-7.7,22.6-6.3,29,2.7c7.9-9.7,25.3-10.7,33.1-0.4
		c5,6.6,4.3,15.3,4.3,23.1c-0.2,5.3,0.4,10.7-0.3,16c-1.5,5.6-11.4,5.4-12.4-0.4c-0.9-9.2,0.6-18.5-0.8-27.6
		c-1.6-7.4-12.5-8.1-16.8-2.8c-3.8,4-2.6,9.9-2.8,14.9c-0.2,5.3,0.4,10.6-0.3,15.9c-1.5,5.6-11.2,5.4-12.5-0.2
		c-0.9-9.2,0.5-18.5-0.8-27.6c-0.9-4.8-6.2-7.1-10.7-6.3c-4.8,0.3-8.6,4.7-8.8,9.4c-0.4,8,0.2,15.9-0.3,23.9
		c-0.6,6-10.4,6.7-12.4,1.3c-0.9-3-0.4-6.3-0.5-9.4C-1499.4,474.2-1499.8,463.5-1499.3,452.8z"/>
	<g>
		<path class="st0" d="M-1792.5-31.2c19.2-2.6,39.6-0.9,57,8.1c12,6.1,22,17.1,24.3,30.7c-27.6,15.9-57.9,26.5-88.9,33.6
			c-22.2,5.1-44.7,8.4-67.4,10.1c-1.6,0-3.3,0.4-4.8-0.2c-3.5-6.3-3.6-13.9-2.6-20.8c2.6-14.7,12.2-27,23.4-36.4
			C-1834.8-19.9-1813.9-28.1-1792.5-31.2z"/>
		<path class="st0" d="M-1894.2,161.2c7.4-11.6,16.5-22.1,26.9-31.1c11.6,15.8,28.8,26.9,47.6,32.3c31.2,9.1,65.7,3.5,93.4-13
			c0.8,2.3,1.7,4.5,2.5,6.8c-7.7,5.8-15.4,11.6-23.1,17.4c-1.9,1.2-3.1,3.3-2.8,5.6c0,8.9,0,17.9,0,26.8
			c-6.8-4.6-13.4-9.5-20.2-14.1c-4.9-3.3-11.9-1.2-15.2,3.4c-3.7,4.7-3.6,12.5,1.5,16.1c11.2,8.1,22.7,15.8,33.9,24
			c-0.1,11.6,0.1,23.2-0.1,34.8c0,2.2-2.1,3.6-3.3,5.2c-11.4,12.8-26.3,23-43.2,26.7c-17.8,4.1-36.6,0.6-53.1-6.8
			c6-9.4,12.1-18.6,18.2-28c3.4-5,2.7-12.4-1.8-16.5c-4-4-10.8-4.8-15.7-1.9c-2.7,1.5-4.4,4.2-6.1,6.8c-5.6,8.9-11.5,17.6-17.1,26.5
			c-11.5-7.8-21.5-18-28.8-29.9c-8-13.2-12-28.8-10.7-44.2C-1910.1,191.1-1903.2,175.2-1894.2,161.2z"/>
	</g>
	<g>
		<path class="st2" d="M-1851.6,63.8c52.7-5.8,105.4-19.4,151.2-46.8c8.2,2.3,16.3,5.1,24,8.7c4.4,2.1,8.9,4.4,12,8.2
			c-5.5,5.7-13.4,7.6-20.5,10.5c-33.1,11.8-67.5,19.7-102.5,23.1C-1808.7,69.3-1830.8,69.6-1851.6,63.8z"/>
	</g>
	<g>
		<g>
			<path class="st3" d="M-1799.6,82c35-1.6,69.6-8.9,103-19.2c3.5,22.1-6.7,44.5-22.7,59.4c-3.1,1.9-6.6,2.8-10,4.1
				c-12.2,3.9-25.5,6-38,2.5c-8-2.2-15.1-7.3-19.9-14c-2.8,2-5.5,4-8.4,5.9c6.6,9.9,17.3,16.6,28.9,18.9c6.6,1.4,13.5,1.6,20.2,1
				c-20.5,9-43.9,11.7-65.7,6.2c-15.8-4-30.7-12.6-40.6-25.7c-10.1-13.1-14.1-30.5-10.7-46.7C-1843.1,81.7-1821,82.8-1799.6,82z
				 M-1722.1,84.3c-5.3,3-4.1,12,1.8,13.6c4.8,1.8,9.7-3.3,8.6-8.1C-1712.2,85.1-1717.9,81.7-1722.1,84.3z M-1780.3,94
				c-5.3,2.7-4.5,11.4,0.9,13.5c4.4,2.2,9.7-1.9,9.3-6.7C-1769.8,95.8-1775.6,91.4-1780.3,94z"/>
		</g>
	</g>
	<g>
		<path class="st4" d="M-1704.3,156.1c1-0.9,2.4-1.1,3.7-1c27.2,0,54.4,0,81.7,0c-7.3,5.5-14.6,11-21.9,16.5c-1,0.9-2.3,1.1-3.6,1
			c-27.3,0-54.5,0-81.8,0C-1718.9,167.1-1711.6,161.6-1704.3,156.1z"/>
		<path class="st4" d="M-1634.1,181.5c9.1-6.8,18.1-13.6,27.2-20.4c-0.1,29.7,0,59.4-0.1,89.1c-9.1,6.7-18.1,13.6-27.2,20.3
			C-1634.1,240.8-1634.1,211.1-1634.1,181.5z"/>
		<path class="st4" d="M-1738.1,214.1c0-9.9,0-19.8,0-29.6c30.7,0,61.4,0,92,0c0,30.7,0,61.4,0,92c-30.7,0-61.4,0-92.1,0
			c0-11.1,0-22.1,0-33.2c3.4,2.9,7.6,6.4,12.5,4.8c11.7-4,23.3-8.3,34.9-12.5c6.3-2.4,7.9-10.9,4.9-16.4c-2.3-4.9-8.2-8.3-13.5-6.3
			c-9,3.1-17.9,6.5-26.8,9.6C-1730.1,219.7-1734.1,216.9-1738.1,214.1z"/>
	</g>
	<g>
		<path class="st5" d="M-1884.5,379.9c31.7-0.7,63.4-0.8,95.1-0.1c19.6,0.4,39.3,0.9,58.9,2.7c3.9,0.5,7.9,0.6,11.6,1.9
			c0.2,0.3,0.6,0.9,0.8,1.2c-10.5,2.5-21.5,2.6-32.3,3.4c-47.3,2.1-94.8,2.1-142.2,0.9c-15.4-0.5-30.7-1-46-2.5
			c-3.7-0.5-7.6-0.6-10.9-2.4c4.4-2,9.2-2.1,13.9-2.6C-1918.6,380.9-1901.6,380.4-1884.5,379.9z"/>
	</g>
</g>
<g>
	<g>
		<path class="st1" d="M-223.2,15.1c19.7-2.4,40.1-0.9,58.6,6.6c13.8,5.6,26.4,15.1,33.8,28.2c3.3,5.6,5.1,11.8,6.6,18
			c10.9,3.1,21.8,6.9,31.4,13c4.7,3.1,9.5,7.1,11.3,12.7c1.7,5.1-0.3,10.8-4,14.4c-6.7,6.6-15.9,9.3-24.5,12.6
			c2.7,13.8,1.4,28.3-3.5,41.5c-5.7,15.7-16,29.4-28.6,40.2c0.9,2.1,1.7,4.1,2.6,6.2c1.6-0.9,3.3-2.1,5.2-1.9c34.7,0,69.4,0,104.1,0
			c3.4,0,5.9,3.4,5.5,6.6c0,34,0,68,0,102c0.1,2.3-0.5,4.7-2.5,6c-12,9.1-24.1,18-36,27.1c-2.1,1.5-4.2,3.7-7,3.4
			c-33.9,0-67.9,0-101.8,0c-4.9,5.3-10.3,10.1-16.1,14.4c10.9,17.4,21.8,34.7,32.7,52c6.9-3.5,13.6-7.1,20.5-10.5
			c5.4-2.4,11.7,1.2,14,6.2c2.6,4.9,1.6,12.2-3.7,14.8c-8.6,4.5-17.2,8.8-25.8,13.3c-2.8,1.5-5.6,3.4-8.8,3.5
			c-4.2,0.1-8.1-2.4-10.4-5.9c-14.2-20.1-28.6-40.1-41.1-61.3c-25.3,9.5-53.9,5.9-77.9-5.6c-4.1,6.2-8.1,12.6-12.3,18.8
			c-2.9,4.3-8.5,6.4-13.5,5.3c-14.4-2.9-28.7-5.9-43.1-8.9c-4.8,9.5-9.4,19.2-14.3,28.7c-3.1,6.1-11.5,7.2-17.1,4.1
			c-5.6-2.7-9.4-9.8-6.5-15.8c5.3-10.9,10.8-21.8,16.2-32.7c1.7-3.5,2.7-7.6,5.9-10.2c2.4-2.2,5.9-2.9,9-2
			c15.5,3.3,31.1,6.3,46.6,9.7c2.4-3.3,4.5-6.7,6.6-10.1c-14-10-26.5-22.5-35.1-37.6c-7.6-13.3-12-28.5-12.1-43.9
			c-0.2-18,5.1-35.7,13.4-51.6c9.7-18.5,23.2-35,39.3-48.4c-6.3-14.9-7.4-31.8-3.6-47.5c-5.3-3.8-9.2-9.3-11-15.6
			c-4.2-14.4-1.4-30.2,5.5-43.3c7.2-13.7,18.4-25.1,31-34C-265.7,25.5-244.7,17.9-223.2,15.1z M-222.3,32.1
			c-21.4,3.1-42.2,11.3-58.9,25.2c-11.2,9.4-20.8,21.7-23.4,36.4c-1.1,6.9-0.9,14.6,2.6,20.8c1.5,0.6,3.2,0.2,4.8,0.2
			c22.7-1.7,45.2-5,67.4-10.1c30.9-7.2,61.3-17.8,88.9-33.6c-2.2-13.6-12.3-24.6-24.3-30.7C-182.7,31.2-203.1,29.5-222.3,32.1z
			 M-281.3,127.1c20.9,5.8,42.9,5.5,64.3,3.7c34.9-3.4,69.4-11.3,102.5-23.1c7.1-2.9,15-4.8,20.5-10.5c-3.1-3.9-7.6-6.1-12-8.2
			c-7.7-3.6-15.8-6.4-24-8.7C-175.9,107.6-228.7,121.2-281.3,127.1z M-229.3,145.3c-21.5,0.8-43.5-0.3-63.9-7.6
			c-3.4,16.1,0.7,33.6,10.7,46.7c9.9,13.1,24.8,21.7,40.6,25.7c21.8,5.5,45.2,2.8,65.7-6.2c-6.7,0.5-13.6,0.4-20.2-1
			c-11.6-2.3-22.3-9-28.9-18.9c2.8-1.9,5.6-3.9,8.4-5.9c4.8,6.7,11.9,11.9,19.9,14c12.5,3.5,25.8,1.4,38-2.5c3.4-1.2,6.9-2.1,10-4.1
			c16-14.9,26.2-37.3,22.7-59.4C-159.7,136.3-194.3,143.6-229.3,145.3z M-324,224.4c-9,14.1-15.8,29.9-17.1,46.7
			c-1.3,15.4,2.6,31.1,10.7,44.2c7.3,11.9,17.3,22.1,28.8,29.9c5.5-8.9,11.4-17.6,17.1-26.5c1.6-2.6,3.3-5.3,6.1-6.8
			c4.9-3,11.6-2.2,15.7,1.9c4.4,4.1,5.2,11.5,1.8,16.5c-6,9.4-12.1,18.6-18.2,28c16.5,7.3,35.2,10.8,53.1,6.8
			c16.9-3.7,31.8-13.9,43.2-26.7c1.2-1.6,3.3-3,3.3-5.2c0.1-11.6-0.1-23.2,0.1-34.8c-11.2-8.1-22.7-15.9-33.9-24
			c-5.1-3.6-5.2-11.5-1.5-16.1c3.3-4.6,10.3-6.8,15.2-3.4c6.8,4.6,13.4,9.5,20.2,14.1c0-8.9,0-17.8,0-26.8c-0.2-2.3,1-4.3,2.9-5.6
			c7.7-5.8,15.4-11.5,23.1-17.4c-0.8-2.3-1.6-4.5-2.5-6.8c-27.7,16.6-62.2,22.1-93.4,13c-18.7-5.4-36-16.5-47.6-32.3
			C-307.5,202.3-316.6,212.9-324,224.4z M-134,219.4c-7.3,5.5-14.6,11-21.9,16.5c27.3,0,54.5,0,81.8,0c1.3,0,2.6-0.1,3.6-1
			c7.3-5.5,14.7-11,21.9-16.5c-27.2,0-54.4,0-81.7,0C-131.6,218.3-133,218.5-134,219.4z M-63.8,244.8c0,29.7,0,59.4,0,89
			c9.1-6.7,18.1-13.6,27.2-20.3c0.1-29.7,0-59.4,0-89.1C-45.7,231.1-54.7,238-63.8,244.8z M-167.8,277.4c4,2.8,8,5.5,11.9,8.4
			c9-3.1,17.9-6.5,26.9-9.6c5.3-2,11.2,1.4,13.5,6.3c3,5.6,1.4,14-4.9,16.5c-11.6,4.2-23.2,8.5-34.9,12.5c-4.8,1.6-9.1-1.9-12.5-4.8
			c0,11.1,0,22.1,0,33.2c30.7,0,61.4,0,92.1,0c0-30.7,0-61.4,0-92c-30.7,0-61.4,0-92,0C-167.8,257.7-167.8,267.5-167.8,277.4z"/>
	</g>
	<path class="st1" d="M-406.7,113c18.6-1.3,37.4-1.4,56,1c3.2,0.7,7.1,0.7,9.6,3.1c-0.3,1.4-2,1.6-3.1,2.1c-5.5,1.5-11.2,2-16.9,2.4
		c-15.6,1.1-31.3,1.1-46.9-0.2c-5.7-0.7-11.8-0.8-17-3.5c-0.3-1.8,1.7-2.1,2.9-2.6C-417.1,113.9-411.9,113.5-406.7,113z"/>
	<path class="st1" d="M-151.9,147.6c4.2-2.6,9.9,0.8,10.4,5.6c1.1,4.8-3.8,9.9-8.6,8.1C-155.9,159.6-157.2,150.6-151.9,147.6z"/>
	<path class="st1" d="M-434.3,155.3c18.7-2.3,37.6-2.2,56.3-0.9c6.1,0.8,12.6,0.8,18.1,3.9c-1.2,1.2-2.7,2.2-4.4,2.5
		c-8.1,1.9-16.5,2.3-24.9,2.7c-13.7,0.5-27.5,0.4-41.1-1c-4.9-0.6-10-1.1-14.5-3.5C-442.3,155.9-437.9,156.1-434.3,155.3z"/>
	<path class="st1" d="M-210,157.3c4.6-2.6,10.5,1.8,10.3,6.9c0.4,4.7-4.9,8.8-9.3,6.7C-214.6,168.7-215.3,160-210,157.3z"/>
	<path class="st1" d="M-471.1,298.8c13.2-1.6,26.6-1.7,39.9-1.4c9,0.3,18,0.7,26.8,2.4c2.2,0.4,4.2,1.3,6.1,2.5
		c-3.9,3.2-9.3,3.1-14,3.9c-18.9,1.9-38.1,1.9-57,0c-4.8-0.8-10.1-0.7-14-3.9C-479.8,299.8-475.3,299.4-471.1,298.8z"/>
	<path class="st1" d="M-437.1,334.3c18.2-2,36.6-2,54.9-0.6c5.9,0.6,12.1,1,17.5,3.7c-2,3.1-6.2,3-9.5,3.7
		c-18.9,2.5-38.1,2.4-57.1,1c-6.2-0.8-12.8-0.7-18.3-4.1C-446.1,335.1-441.3,335-437.1,334.3z"/>
	<g>
		<path class="st0" d="M-222.3,32.1c19.2-2.6,39.6-0.9,57,8.1c12,6.1,22,17.1,24.3,30.7c-27.6,15.9-58,26.5-88.9,33.6
			c-22.2,5.1-44.7,8.4-67.4,10.1c-1.6,0-3.3,0.4-4.8-0.2c-3.5-6.3-3.6-13.9-2.6-20.8c2.6-14.7,12.2-27,23.4-36.4
			C-264.5,43.4-243.6,35.1-222.3,32.1z"/>
		<path class="st0" d="M-324,224.4c7.4-11.6,16.5-22.1,26.9-31.1c11.6,15.8,28.8,26.9,47.6,32.3c31.2,9.1,65.7,3.5,93.4-13
			c0.8,2.3,1.6,4.5,2.5,6.8c-7.7,5.8-15.4,11.6-23.1,17.4c-1.9,1.2-3.1,3.3-2.9,5.6c0,8.9,0,17.9,0,26.8
			c-6.8-4.6-13.4-9.5-20.2-14.1c-4.9-3.3-11.9-1.2-15.2,3.4c-3.7,4.7-3.6,12.5,1.5,16.1c11.2,8.1,22.7,15.8,33.9,24
			c-0.1,11.6,0,23.2-0.1,34.8c0.1,2.2-2.1,3.6-3.3,5.2c-11.4,12.8-26.3,23-43.2,26.7c-17.8,4.1-36.6,0.6-53.1-6.8
			c6-9.4,12.1-18.6,18.2-28c3.4-5,2.7-12.4-1.8-16.5c-4-4-10.8-4.8-15.7-1.9c-2.7,1.5-4.4,4.2-6.1,6.8c-5.6,8.9-11.5,17.6-17.1,26.5
			c-11.5-7.8-21.5-18-28.8-29.9c-8-13.1-12-28.8-10.7-44.2C-339.8,254.4-333,238.5-324,224.4z"/>
	</g>
	<g>
		<path class="st2" d="M-281.3,127.1c52.7-5.9,105.4-19.4,151.2-46.8c8.2,2.3,16.3,5.1,24,8.7c4.4,2.1,8.9,4.4,12,8.2
			c-5.5,5.7-13.4,7.7-20.5,10.5c-33.1,11.8-67.5,19.7-102.5,23.1C-238.5,132.6-260.5,132.9-281.3,127.1z"/>
	</g>
	<g>
		<g>
			<path class="st3" d="M-229.3,145.3c35-1.6,69.6-9,103-19.3c3.5,22.1-6.7,44.5-22.7,59.4c-3.1,1.9-6.6,2.8-10,4.1
				c-12.2,3.9-25.5,6-38,2.5c-8-2.2-15.1-7.3-19.9-14c-2.8,2-5.6,4-8.4,5.9c6.6,9.9,17.3,16.6,28.9,18.9c6.6,1.4,13.5,1.6,20.2,1
				c-20.5,9-43.9,11.7-65.7,6.2c-15.8-4-30.7-12.6-40.6-25.7c-10.1-13.1-14.1-30.5-10.7-46.7C-272.8,145-250.8,146.1-229.3,145.3z
				 M-151.9,147.6c-5.4,3-4.1,12,1.8,13.6c4.8,1.8,9.7-3.3,8.6-8.1C-141.9,148.4-147.6,145-151.9,147.6z M-210,157.3
				c-5.3,2.7-4.6,11.4,0.9,13.6c4.4,2.2,9.7-1.9,9.3-6.7C-199.5,159.1-205.4,154.6-210,157.3z"/>
		</g>
	</g>
	<g>
		<path class="st4" d="M-134,219.4c1-0.9,2.4-1.1,3.7-1c27.2,0,54.4,0,81.7,0c-7.3,5.5-14.6,11-21.9,16.5c-1,0.9-2.3,1.1-3.6,1
			c-27.3,0-54.5,0-81.8,0C-148.6,230.4-141.3,224.9-134,219.4z"/>
		<path class="st4" d="M-63.8,244.8c9.1-6.8,18.1-13.6,27.2-20.4c0,29.7,0,59.4,0,89.1c-9.1,6.7-18.1,13.6-27.2,20.3
			C-63.8,304.1-63.8,274.4-63.8,244.8z"/>
		<path class="st4" d="M-167.8,277.4c0-9.9,0-19.8,0-29.6c30.7,0,61.4,0,92,0c0,30.7,0,61.3,0,92c-30.7,0-61.4,0-92.1,0
			c0-11.1,0-22.1,0-33.2c3.4,2.9,7.6,6.4,12.5,4.8c11.7-4,23.3-8.3,34.9-12.5c6.3-2.4,7.9-10.9,4.9-16.5c-2.3-4.9-8.2-8.3-13.5-6.3
			c-9,3.1-17.9,6.5-26.9,9.6C-159.9,282.9-163.8,280.2-167.8,277.4z"/>
	</g>
	<g>
		<path class="st5" d="M-314.3,443.2c31.7-0.7,63.4-0.8,95.1-0.1c19.6,0.4,39.3,0.9,58.9,2.7c3.9,0.5,7.9,0.6,11.6,1.9
			c0.2,0.3,0.6,0.9,0.8,1.2c-10.6,2.5-21.5,2.6-32.3,3.4c-47.4,2.1-94.8,2.1-142.2,0.9c-15.4-0.5-30.7-1-46-2.5
			c-3.7-0.5-7.6-0.6-10.9-2.4c4.4-2,9.2-2.1,13.9-2.6C-348.3,444.2-331.3,443.7-314.3,443.2z"/>
	</g>
</g>
<g>
	<g>
		<g>
			<path class="st1" d="M-2677.5-74.6c19.7-2.4,40.1-0.9,58.6,6.6c13.8,5.6,26.4,15.1,33.8,28.2c3.3,5.6,5.1,11.8,6.6,18
				c10.9,3.2,21.8,6.9,31.4,13c4.7,3.1,9.5,7.1,11.3,12.7c1.7,5.1-0.3,10.8-4,14.4c-6.7,6.6-15.9,9.3-24.5,12.6
				c2.7,13.8,1.4,28.3-3.5,41.5c-5.7,15.7-16,29.4-28.6,40.2c0.9,2.1,1.7,4.1,2.6,6.2c1.6-0.9,3.3-2.1,5.2-1.9
				c34.7,0,69.4,0,104.1,0c3.4,0,5.9,3.4,5.5,6.6c0,34,0,68,0,101.9c0.1,2.3-0.5,4.7-2.5,6c-12,9.1-24.1,18-36,27.1
				c-2.1,1.5-4.2,3.7-7,3.4c-33.9,0-67.9,0-101.8,0c-4.9,5.3-10.3,10.1-16.1,14.4c10.9,17.4,21.8,34.7,32.7,52
				c6.9-3.5,13.6-7.1,20.5-10.5c5.4-2.4,11.7,1.2,14,6.2c2.6,4.9,1.6,12.2-3.7,14.8c-8.6,4.5-17.2,8.8-25.8,13.3
				c-2.8,1.5-5.6,3.4-8.8,3.5c-4.2,0.1-8.1-2.4-10.3-5.9c-14.2-20.1-28.6-40.1-41.2-61.3c-25.3,9.5-53.9,5.9-77.9-5.5
				c-4.1,6.2-8.1,12.6-12.3,18.8c-2.9,4.3-8.5,6.4-13.5,5.3c-14.4-2.9-28.7-5.9-43.1-8.9c-4.8,9.5-9.4,19.2-14.3,28.7
				c-3.1,6.1-11.5,7.2-17.1,4.1c-5.6-2.7-9.4-9.8-6.5-15.8c5.3-10.9,10.8-21.8,16.2-32.7c1.7-3.5,2.7-7.6,5.9-10.2
				c2.4-2.2,5.9-2.9,9.1-2c15.5,3.3,31.1,6.3,46.6,9.7c2.3-3.3,4.5-6.7,6.6-10.1c-14.1-10-26.5-22.5-35.1-37.6
				c-7.6-13.3-12-28.5-12.1-43.9c-0.2-18,5.1-35.7,13.4-51.6c9.7-18.5,23.2-35,39.3-48.4c-6.3-14.9-7.4-31.8-3.6-47.5
				c-5.3-3.8-9.2-9.3-10.9-15.6c-4.2-14.4-1.4-30.2,5.6-43.3c7.2-13.7,18.4-25.1,31-34C-2720-64.2-2699-71.8-2677.5-74.6z
				 M-2676.5-57.6c-21.4,3.1-42.2,11.3-58.9,25.2c-11.2,9.3-20.8,21.7-23.4,36.4c-1.1,6.9-0.9,14.6,2.6,20.8
				c1.5,0.6,3.2,0.2,4.8,0.2c22.7-1.7,45.2-5,67.4-10.1c30.9-7.2,61.3-17.8,88.9-33.6c-2.2-13.6-12.3-24.6-24.3-30.7
				C-2636.9-58.5-2657.3-60.2-2676.5-57.6z M-2735.6,37.4c20.9,5.8,42.9,5.5,64.3,3.7c34.9-3.4,69.4-11.3,102.5-23.1
				c7.1-2.9,15-4.8,20.5-10.5c-3.1-3.9-7.6-6.1-12-8.2c-7.7-3.6-15.8-6.4-24-8.7C-2630.2,18-2682.9,31.5-2735.6,37.4z M-2683.6,55.6
				c-21.5,0.9-43.5-0.3-63.9-7.6c-3.4,16.1,0.7,33.6,10.7,46.6c9.9,13.1,24.8,21.7,40.6,25.7c21.8,5.5,45.2,2.8,65.7-6.2
				c-6.7,0.5-13.6,0.4-20.2-1.1c-11.6-2.3-22.3-9-28.9-18.9c2.8-1.9,5.6-3.9,8.4-5.9c4.8,6.7,11.9,11.9,19.9,14
				c12.5,3.5,25.8,1.4,38-2.5c3.4-1.2,6.9-2.1,10-4.1c16-14.9,26.2-37.3,22.7-59.4C-2614,46.7-2648.5,54-2683.6,55.6z
				 M-2778.2,134.8c-9,14.1-15.8,29.9-17.1,46.7c-1.3,15.4,2.6,31.1,10.7,44.2c7.3,11.9,17.3,22.1,28.8,29.9
				c5.5-8.9,11.4-17.6,17.1-26.5c1.6-2.6,3.3-5.3,6.1-6.8c4.9-3,11.6-2.2,15.6,1.9c4.4,4.1,5.2,11.5,1.8,16.5
				c-6,9.4-12.1,18.6-18.2,28c16.5,7.3,35.2,10.8,53,6.8c16.9-3.7,31.8-13.9,43.2-26.7c1.2-1.6,3.3-3,3.3-5.2
				c0.1-11.6,0-23.2,0.1-34.8c-11.2-8.1-22.7-15.9-33.9-24c-5.1-3.6-5.2-11.5-1.5-16.1c3.3-4.6,10.3-6.8,15.2-3.4
				c6.8,4.6,13.4,9.5,20.2,14.1c0-8.9,0-17.8,0-26.8c-0.2-2.3,1-4.3,2.9-5.6c7.7-5.8,15.4-11.5,23.1-17.4c-0.8-2.3-1.6-4.5-2.5-6.8
				c-27.7,16.6-62.2,22.1-93.4,13c-18.7-5.4-36-16.5-47.6-32.2C-2761.8,112.6-2770.8,123.2-2778.2,134.8z M-2588.3,129.7
				c-7.3,5.5-14.7,11-21.9,16.5c27.3,0,54.5,0,81.8,0c1.3,0,2.6-0.1,3.6-1c7.3-5.5,14.6-11,21.9-16.5c-27.2,0-54.4,0-81.7,0
				C-2585.9,128.7-2587.2,128.8-2588.3,129.7z M-2518.1,155.1c0,29.7,0,59.4,0,89c9.1-6.7,18.1-13.6,27.2-20.3
				c0.1-29.7,0-59.4,0.1-89.1C-2499.9,141.4-2509,148.3-2518.1,155.1z M-2622.1,187.7c4,2.8,7.9,5.5,11.9,8.4
				c9-3.1,17.9-6.5,26.9-9.6c5.3-2,11.2,1.4,13.5,6.3c3,5.6,1.4,14-4.9,16.4c-11.6,4.2-23.2,8.5-34.9,12.5
				c-4.8,1.6-9.1-1.9-12.5-4.8c0,11.1,0,22.2,0,33.2c30.7,0,61.4,0,92.1,0c0-30.7,0-61.4,0-92c-30.7,0-61.4,0-92,0
				C-2622.1,168-2622.1,177.9-2622.1,187.7z"/>
		</g>
		<path class="st1" d="M-2861,23.3c18.6-1.3,37.5-1.4,56,1c3.2,0.7,7.1,0.7,9.6,3.1c-0.3,1.4-2,1.6-3.1,2.1
			c-5.5,1.5-11.2,2-16.9,2.4c-15.6,1.1-31.3,1.1-46.9-0.2c-5.7-0.7-11.8-0.8-17-3.5c-0.3-1.8,1.7-2.1,2.9-2.6
			C-2871.4,24.2-2866.1,23.8-2861,23.3z"/>
		<path class="st1" d="M-2606.1,57.9c4.2-2.6,9.9,0.8,10.4,5.6c1.1,4.8-3.8,9.9-8.6,8.1C-2610.2,69.9-2611.5,60.9-2606.1,57.9z"/>
		<path class="st1" d="M-2888.6,65.6c18.6-2.3,37.6-2.2,56.3-0.8c6.1,0.8,12.6,0.8,18.1,3.9c-1.2,1.2-2.7,2.2-4.4,2.5
			c-8.2,1.9-16.6,2.3-24.9,2.7c-13.7,0.5-27.5,0.4-41.1-1c-4.9-0.6-10-1-14.5-3.4C-2896.6,66.3-2892.2,66.4-2888.6,65.6z"/>
		<path class="st1" d="M-2664.3,67.6c4.6-2.6,10.5,1.8,10.3,6.9c0.4,4.7-4.9,8.8-9.4,6.7C-2668.8,79-2669.6,70.3-2664.3,67.6z"/>
		<path class="st1" d="M-2925.4,209.1c13.2-1.6,26.6-1.7,39.9-1.4c9,0.3,18,0.7,26.8,2.4c2.2,0.4,4.2,1.3,6.1,2.5
			c-3.9,3.2-9.3,3.1-14,3.9c-18.9,1.9-38.1,1.9-57,0c-4.8-0.8-10.1-0.7-14-3.9C-2934,210.1-2929.6,209.7-2925.4,209.1z"/>
		<path class="st1" d="M-2891.3,244.6c18.2-2,36.6-2,54.9-0.6c5.9,0.6,12.1,1,17.5,3.7c-2,3.1-6.2,3-9.5,3.7
			c-18.9,2.5-38.1,2.4-57.1,1c-6.2-0.8-12.8-0.7-18.3-4.1C-2900.4,245.4-2895.6,245.4-2891.3,244.6z"/>
		<path class="st1" d="M-3102,408c6.5-7,16-10.9,25.6-11c9.6-0.3,19.9,2.6,26.4,10.1c2.9,3.2,1.2,9.5-3.4,9.8
			c-3.7,0.8-6.5-2.3-9.4-3.9c-8.4-5.1-20.4-4.8-27.8,2.2c-9.2,8.4-10.1,23.3-4.3,33.8c3.5,6.3,10.3,10.6,17.6,10.9
			c6.8,0.3,14.5-0.6,19.8-5.4c0.3-3.4,0-6.8,0.1-10.2c-5.5-0.1-11.1,0.3-16.6-0.2c-6.3-0.9-5.8-12,0.7-12c7.6-0.2,15.2-0.1,22.9,0
			c3.5-0.2,6.3,2.9,6,6.3c-0.1,6.6,0.5,13.3-0.3,19.9c-1.5,3.2-4.6,5.3-7.4,7.4c-8.8,5.9-20,7.2-30.3,5.6
			c-11.7-1.8-22-10.2-26.4-21.2C-3114.5,436.3-3112.6,419-3102,408z"/>
		<path class="st1" d="M-2897.5,403.4c-0.4-5.8,7.7-7.9,11.3-4.2c1.9,1.9,1.6,4.9,1.7,7.4c-0.1,6.5,0,13-0.1,19.5
			c8.3-7.9,23.7-6.4,29.9,3.4c4.6,6.7,3.9,15.2,3.9,23c-0.2,4.9,0.4,9.8-0.3,14.7c-1.3,6.1-12,5.7-12.6-0.6c-0.4-8,0.1-16-0.3-24
			c-0.2-2.7-1-5.7-3.3-7.4c-5.7-4.1-15.5-1.6-16.9,5.8c-1,8.5,0.1,17.1-0.6,25.6c-0.5,6-10.3,6.9-12.4,1.5c-0.6-1.8-0.5-3.6-0.5-5.4
			C-2897.4,442.8-2897.6,423.1-2897.5,403.4z"/>
		<path class="st1" d="M-2513.6,399.4c3.3-3.5,11.1-2.3,11.4,3.1c0.3,11.8,0,23.5,0.1,35.3c6.3-4.9,12.6-9.9,19-14.8
			c2.1-1.8,5.3-2,7.7-0.7c3.1,1.8,3.4,6.8,0.7,9.1c-4.4,3.8-9.2,7.2-13.8,10.9c4.9,6.4,10,12.8,14.9,19.2c2.2,2.6,1.9,7.2-1.1,9
			c-2.5,1.4-6.1,1.3-7.9-1.1c-5.3-6.5-10.2-13.2-15.4-19.7c-1.4,1.1-2.7,2.2-4.1,3.3c-0.2,4.8,0.4,9.6-0.3,14.3
			c-1.5,5.5-10.9,5.5-12.4,0c-0.6-3-0.3-6-0.3-9c0-17.7,0-35.3,0-53C-2515,403.4-2515.1,401-2513.6,399.4z"/>
		<path class="st1" d="M-3031.1,403.9c3.5-1.6,8.8-1.2,10.6,2.6c1.5,3.4,1.1,8.5-2.6,10.4c-3.6,1.7-9.2,1.1-10.8-3.1
			C-3035.1,410.5-3034.6,405.7-3031.1,403.9z"/>
		<path class="st1" d="M-2628.2,403.8c4.4-2.2,11.2,0,11.1,5.7c1,4.9-3.5,9.3-8.4,8.3C-2632.6,417.7-2634,406.6-2628.2,403.8z"/>
		<path class="st1" d="M-2461.1,404c3.6-1.8,9.3-1.3,11,2.9c1.2,3.4,0.8,8.3-2.9,10.1c-3.6,1.6-9.2,0.9-10.7-3.3
			C-2464.8,410.4-2464.4,405.9-2461.1,404z"/>
		<path class="st1" d="M-2661,408c1.4-5.8,11.6-5.4,12.5,0.5c0.5,4.6,0.1,9.2,0.2,13.8c3.2,0.1,6.5-0.3,9.7,0.4
			c4.4,1.5,4.4,9,0.1,10.6c-3.2,0.7-6.5,0.3-9.8,0.4c-0.1,10.9,0.2,21.9-0.2,32.8c-0.5,6.7-12.2,6.6-12.7-0.1
			c-0.4-10.9,0-21.8-0.2-32.7c-2.7,0-5.4,0.2-8.1-0.2c-5.2-0.9-5.2-9.9,0-10.9c2.7-0.4,5.4-0.3,8.1-0.3
			C-2661.2,417.5-2661.8,412.7-2661,408z"/>
		<path class="st1" d="M-2545.3,408.6c0.8-6.2,11.5-6.3,12.6-0.2c0.5,4.6,0.1,9.3,0.2,13.9c3.3,0.1,6.6-0.3,9.8,0.4
			c4.3,1.6,4.3,9,0,10.6c-3.2,0.7-6.5,0.3-9.8,0.4c0,9.9,0,19.9,0,29.9c-0.1,1.7,0.1,3.5-0.8,5c-2.6,4.7-11.6,3.7-12.1-2
			c-0.4-10.9,0-21.9-0.2-32.8c-2.9-0.1-5.9,0.3-8.8-0.4c-4.3-1.6-4.3-8.9-0.1-10.5c2.9-0.8,5.9-0.4,8.8-0.5
			C-2545.4,417.7-2545.8,413.1-2545.3,408.6z"/>
		<path class="st1" d="M-3030.1,422c2.8-1,6.5-0.7,8.4,1.8c1.5,2.3,1.1,5.1,1.2,7.7c-0.2,11.6,0.2,23.3-0.2,34.9
			c-0.5,6-10,6.8-12.3,1.7c-0.7-1.8-0.6-3.8-0.6-5.7c0.1-11.3,0-22.6,0-34C-3033.8,425.9-3032.7,423-3030.1,422z"/>
		<g>
			<path class="st1" d="M-3008.8,427.3c2.9-4.2,8.5-5,13.2-5.8c8.5-1,18.6-0.5,24.7,6.4c5,5.6,4.7,13.6,4.6,20.6
				c-0.2,6.3,0.4,12.7-0.3,19c-1.5,5.5-9.9,5.2-12.3,0.6c-7.7,5.5-19.2,5.5-26.7-0.4c-7-5.3-7.1-17-0.4-22.6
				c7.5-6,18.8-5.8,26.9-1.1c-0.3-3.5-0.7-7.8-4.1-9.7c-6.1-3.2-13.1-0.9-19.2,1C-3007,436.8-3011.1,431.3-3008.8,427.3z
				 M-2993.1,451c-4.9,0.2-6.7,7.2-2.5,9.7c4.4,2.1,10.3,1.9,14.4-0.9c2.1-1.3,2.7-4.6,0.8-6.3
				C-2983.8,450.3-2988.8,450.1-2993.1,451z"/>
		</g>
		<g>
			<path class="st1" d="M-2938.3,421.7c8-1.6,16.9-0.1,23.1,5.5c10.4,8.9,11.2,26.5,2,36.6c-9.4,10.8-28.4,10.9-37.9,0.3
				c-9.2-9.8-8.8-26.9,1-36.1C-2946.9,424.8-2942.7,422.6-2938.3,421.7z M-2936.1,433.2c-10.7,3.3-11.5,20.7-2,25.9
				c5.1,2.5,12.3,1.5,15.6-3.5c3.5-5.3,3.5-12.8,0-18.1C-2925.3,433.1-2931.2,431.8-2936.1,433.2z"/>
		</g>
		<g>
			<path class="st1" d="M-2839.2,426.9c3-3.8,8.2-4.6,12.6-5.4c7.7-0.9,16.4-0.8,22.9,4.2c5.4,4.1,7,11.3,6.8,17.8
				c-0.2,7.8,0.3,15.7-0.2,23.5c-1.1,5.8-9.9,5.9-12.3,1c-8,5.5-20.1,5.5-27.5-1c-6.6-5.8-6-17.7,1.3-22.7
				c7.6-5.1,18.1-4.8,25.9-0.4c-0.2-3.6-0.7-8-4.3-9.8c-6.2-3.1-13.2-0.6-19.4,1.2C-2838.2,436.5-2841.9,430.8-2839.2,426.9z
				 M-2824.1,451c-4.8,0.4-6.1,7.7-1.9,9.8c4.6,1.9,10.4,1.8,14.4-1.4c2-1.4,2.3-4.6,0.3-6.2C-2814.7,450.2-2819.8,450.1-2824.1,451
				z"/>
		</g>
		<path class="st1" d="M-2783.2,422.8c3.7-2.6,9.4-1.2,10.9,3.3c8.5-8.1,24.3-6.2,30.2,4.1c4.5,7,3.3,15.5,3.4,23.4
			c-0.1,4.5,0.3,9.1-0.3,13.6c-1.3,6.1-12,5.7-12.6-0.6c-0.5-8,0.1-16-0.2-24c-0.2-3-1.2-6.3-4-7.9c-2.9-1.7-6.5-1.8-9.7-0.9
			c-3.9,1.2-6.6,5-6.8,9c-0.4,7.9,0.2,15.9-0.3,23.8c-0.5,6-10.4,6.8-12.4,1.4c-0.6-1.7-0.5-3.6-0.5-5.4c0.1-11,0-22.1,0-33.1
			C-2785.5,427.1-2785.3,424.3-2783.2,422.8z"/>
		<g>
			<path class="st1" d="M-2724.5,429.5c7.4-9.7,23.6-11.4,32.6-3c0.9-2.8,3.2-5.3,6.4-4.9c3.4-0.3,6.6,2.5,6.3,6
				c0.1,13.3,0.1,26.6,0,39.9c-0.1,7.5-3,15.6-9.8,19.6c-8.2,4.7-18.4,4.6-27.3,2.3c-3.8-1.4-8.4-2.5-10.6-6.3c-2.1-4,2-9,6.3-7.9
				c3.7,1.3,7,3.7,11,4.2c4.6,0.7,9.7,0.6,13.6-2.1c3.7-2.9,3.6-8,3.8-12.2c-7,6.4-18.1,6.8-26.2,2.2
				C-2731.1,459.9-2733.4,440.7-2724.5,429.5z M-2708.1,433c-9,2.4-11.3,15.1-5.5,21.7c4,4.9,12,5.4,16.8,1.5
				c6.3-5.1,6.3-16.2-0.1-21.2C-2700.1,432.5-2704.4,432-2708.1,433z"/>
		</g>
		<path class="st1" d="M-2627.2,422c2.6-0.8,5.9-0.6,7.8,1.5c1.5,1.6,1.5,4,1.5,6c0,11.4,0,22.7,0,34.1c0,2,0,4.4-1.5,6
			c-3.6,3.8-11.9,1.9-11.5-4.1c-0.2-12.3,0-24.7-0.1-37C-2631.1,425.8-2629.9,422.8-2627.2,422z"/>
		<g>
			<path class="st1" d="M-2602.6,429.5c7-8.5,20.1-10.9,29.8-5.8c8.4,4.6,12.9,14.5,12.2,23.9c-0.1,2.5-2.6,4.1-5,3.9
				c-9.9,0.2-19.8,0-29.7,0.1c0.9,2.9,2,6.2,5,7.7c6,3.1,13.6,1.6,18.3-3.1c2.6-3,8.3-2.6,9.6,1.4c1.1,2.8-0.5,5.7-2.6,7.6
				c-6.6,6.6-16.8,7.9-25.6,6c-7.9-1.7-14.5-8-16.8-15.8C-2609.9,446.7-2608.7,436.5-2602.6,429.5z M-2594.8,440.4
				c7.3,0,14.6,0.1,21.9,0c-1.7-5.2-6.9-9.2-12.5-8.2C-2590.2,432.3-2593.7,436.1-2594.8,440.4z"/>
		</g>
		<path class="st1" d="M-2460,422.1c3.9-1.8,9.9,0.4,9.6,5.3c0.1,12.7,0.1,25.4,0,38.1c0.4,6.1-8.5,8-11.8,3.7
			c-1.2-1.6-1.2-3.7-1.2-5.6c0-11.7,0-23.5,0-35.2C-2463.5,425.9-2462.6,423.1-2460,422.1z"/>
		<g>
			<path class="st1" d="M-2434.8,429.2c6.7-7.8,18.5-10.2,27.9-6.3c7.8,3.4,12.9,11.4,13.7,19.7c0.2,2.4,0.8,5.3-0.9,7.3
				c-1.3,1.6-3.6,1.5-5.5,1.6c-9.4,0-18.8-0.1-28.2,0c0.9,3,2.1,6.3,5.2,7.8c5.1,2.4,11.7,2,16.2-1.7c2.1-1.5,4-3.9,6.8-3.5
				c2.4,0,4.7,1.8,5,4.2c0.8,3-1.5,5.6-3.6,7.5c-6.6,6-16.4,7-24.8,5.2c-7.8-1.7-14.3-7.8-16.7-15.4
				C-2442.4,446.9-2441.2,436.3-2434.8,429.2z M-2427.3,440.4c7.3,0.1,14.6,0.1,21.9,0c-1.3-3.1-3.3-6.2-6.5-7.4
				C-2418,430.3-2426,433.6-2427.3,440.4z"/>
		</g>
		<path class="st1" d="M-2383.3,426.4c0.8-6.5,11.3-6.5,12.9-0.4c8-7.7,22.6-6.3,29,2.7c7.9-9.7,25.3-10.7,33.1-0.4
			c5,6.6,4.3,15.3,4.3,23.1c-0.2,5.3,0.4,10.7-0.3,16c-1.5,5.6-11.4,5.4-12.4-0.4c-0.9-9.2,0.6-18.5-0.8-27.6
			c-1.6-7.4-12.5-8.1-16.8-2.8c-3.8,4-2.6,9.9-2.8,14.9c-0.2,5.3,0.4,10.6-0.3,15.9c-1.5,5.6-11.2,5.4-12.5-0.2
			c-1-9.1,0.5-18.5-0.8-27.6c-0.9-4.8-6.2-7.1-10.7-6.3c-4.8,0.3-8.6,4.7-8.8,9.4c-0.4,8,0.2,15.9-0.3,23.9
			c-0.6,6-10.4,6.7-12.4,1.3c-0.9-3-0.4-6.3-0.5-9.4C-2383.4,447.8-2383.8,437.1-2383.3,426.4z"/>
		<path class="st1" d="M-2832.7,495.7c2.2-0.6,5.7-1.7,6.9,1.1c1,3.4-2.8,5.1-5.2,6.4c-0.8-2.9,3.2-3.4,2.7-5.8
			C-2830.1,497.6-2832.3,498.2-2832.7,495.7z"/>
		<path class="st1" d="M-2365,501.4c1.3-1.8,2.4-4.1,4.5-5c1.6-0.1,3.1-0.2,4.7-0.2c-2.3,2.1-4.6,4.1-7,6.2
			C-2363.3,502.1-2364.4,501.6-2365,501.4z"/>
		<path class="st1" d="M-2919,499.1c1.5,0,3.1,0,4.6,0c-0.7,5.3-1.2,10.6-2,15.9c2.4-2.9,5.7-5.8,9.8-5.2c3.3,0.2,5.1,3.6,4.9,6.6
			c-0.2,6.1-1.4,12.1-2,18.2c-1.5,0-3.1,0-4.6,0c0.5-6.1,1.8-12.1,1.9-18.2c0-3.6-4.7-3.4-6.5-1.3c-5.8,4.8-4.6,12.8-5.8,19.4
			c-1.5,0-3.1,0-4.6,0C-2921.9,522.8-2920.5,510.9-2919,499.1z"/>
		<path class="st1" d="M-2764.2,534.6c1.4-11.9,2.8-23.7,4.3-35.6c1.5,0,3.1,0,4.6,0c-0.7,5.3-1.2,10.6-2,15.9
			c2.4-2.8,5.6-5.7,9.7-5.2c3.3,0.2,5.2,3.6,5,6.6c-0.2,6.1-1.4,12.1-2,18.2c-1.5,0-3.1,0-4.6,0c0.6-6,1.8-12,1.9-18.1
			c0.1-3.7-4.6-3.5-6.5-1.4c-5.8,4.8-4.6,12.9-5.8,19.5C-2761.1,534.6-2762.6,534.6-2764.2,534.6z"/>
		<path class="st1" d="M-2720.3,499.8c1.7-0.2,3.4-0.2,5.1-0.2c-3.1,2.7-5.3,7.8-10.1,7.2C-2723.7,504.4-2722.5,501.6-2720.3,499.8z
			"/>
		<path class="st1" d="M-2681.3,499.1c1.5,0,3.1,0,4.6,0c-0.6,5.3-1.2,10.6-2,15.9c2.5-2.9,5.9-5.9,10.1-5.1
			c3.5,0.5,4.9,4.4,4.6,7.6c-0.4,5.7-1.4,11.4-2,17.2c-1.5,0-3.1,0-4.6,0c0.5-6.1,1.8-12,1.9-18.1c0.2-2-1.8-3.4-3.7-2.8
			c-3.3,0.9-5.5,4.1-6.7,7.2c-1.2,4.5-1.2,9.2-1.9,13.7c-1.6,0-3.1,0.1-4.7,0.1C-2684.2,522.8-2682.7,510.9-2681.3,499.1z"/>
		<path class="st1" d="M-2650.5,499.6c1.8,0.2,3.7-0.4,5.3,0.5c1.3,2,2.1,4.3,3.1,6.5c-0.8,0-2.5,0-3.4-0.1
			C-2647.1,504.3-2648.8,501.9-2650.5,499.6z"/>
		<path class="st1" d="M-2545.2,499.1c1.5,0,3.1,0,4.6,0c-0.7,5.3-1.2,10.6-2,16c2.4-3,5.8-5.8,9.9-5.2c3.2,0.3,4.9,3.8,4.8,6.7
			c-0.3,6-1.4,12-2,18c-1.6,0-3.1,0-4.6,0c0.5-6.4,2.1-12.7,1.8-19.1c-0.9-3.2-5.1-1.9-6.7,0c-5.3,4.8-4.3,12.6-5.3,19
			c-1.6,0-3.2,0.1-4.7,0.1C-2548.1,522.8-2546.7,510.9-2545.2,499.1z"/>
		<path class="st1" d="M-2469.4,499.1c1.5,0,3.1,0,4.6,0c-0.7,5.3-1.2,10.6-2,15.9c2.5-3,5.9-5.9,10.1-5.1c3.5,0.5,4.9,4.4,4.6,7.6
			c-0.5,5.6-1.2,11.3-2,16.9c-1.5,0.5-3.1,0.2-4.6,0.3c0.6-5.8,1.5-11.5,1.9-17.2c0.1-1.5-0.3-3.4-2-3.8c-2.6-0.6-4.8,1.4-6.3,3.3
			c-4,5-2.8,11.8-4.2,17.7c-1.5-0.1-3-0.1-4.5-0.1C-2472.2,522.8-2470.8,510.9-2469.4,499.1z"/>
		<path class="st1" d="M-2407,499.1c1.5,0,3.1,0,4.6,0c-0.6,5.3-1.2,10.6-2,15.9c2.4-2.9,5.7-5.8,9.8-5.2c3.3,0.2,5.1,3.6,4.9,6.6
			c-0.3,6.1-1.4,12.1-1.9,18.2c-1.6,0-3.1,0-4.6,0c0.6-5.8,1.5-11.5,1.9-17.2c0.3-2-1-4.3-3.2-3.8c-3.7,0.6-6,4.1-7.3,7.3
			c-1.1,4.5-1.2,9.1-1.9,13.7c-1.6,0-3.1,0-4.6,0C-2409.9,522.8-2408.5,510.9-2407,499.1z"/>
		<path class="st1" d="M-3070,534.6c1.4-11.5,2.8-23,4.3-34.5c1.5-0.1,3-0.1,4.5-0.1c3.6,7.8,6.3,16,9.4,24
			c4.6-7.6,9.3-15.2,14.1-22.7c1.1-2,3.8-1,5.6-1.3c-1.4,11.5-2.8,23.1-4.3,34.6c-1.4,0-2.8,0-4.3,0c1-8.9,2.3-17.7,3.2-26.6
			c-4.3,6.8-8.4,13.9-12.9,20.7c-0.7,1.5-3.6,1.6-4.1-0.1c-2.8-6.9-5.3-13.9-8-20.8c-1.1,9-2.2,17.9-3.3,26.9
			C-3067.2,534.6-3068.6,534.6-3070,534.6z"/>
		<path class="st1" d="M-2844.2,506.5c1.9-2.2,3.8-4.3,5.7-6.4c1.3,0,2.7,0,4,0c1.4,2.1,2.8,4.3,4.3,6.4c-0.9,0-2.6,0-3.4,0
			c-1-1.3-2.1-2.6-3.1-3.9c-1.3,1.3-2.6,2.6-3.9,3.9C-2841.5,506.5-2843.3,506.5-2844.2,506.5z"/>
		<path class="st1" d="M-2377.7,506.6c2.8-2.9,5-7.8,9.8-6.6c1.4,2.2,2.8,4.3,4.2,6.5c-0.9,0-2.7,0-3.5-0.1c-1-1.3-2-2.6-2.9-3.9
			C-2372.2,504.8-2374.4,507.3-2377.7,506.6z"/>
		<path class="st1" d="M-2707.5,502.4c0.8,0,2.5-0.1,3.3-0.1c-0.4,2.8-0.7,5.5-1,8.3c2.1,0,4.2,0,6.3,0c-0.1,0.8-0.3,2.5-0.4,3.4
			c-2.1,0-4.2,0-6.3,0c-0.6,5.2-1.5,10.3-1.8,15.5c0.4,2.8,3.6,1.4,5.2,0.7c0.3,0.7,1,2.1,1.4,2.8c-2.5,1.5-5.6,2.9-8.6,1.6
			c-2-0.8-2.8-3.1-2.6-5c0.4-5.2,1.3-10.4,1.8-15.5c-0.8,0-2.4,0-3.2,0c0-1,0-1.9,0-2.9c1.3-0.2,2.5-0.4,3.8-0.5
			C-2708.9,507.8-2708.2,505.1-2707.5,502.4z"/>
		<path class="st1" d="M-2354.6,502.4c0.8,0,2.5,0,3.3-0.1c-0.3,2.8-0.7,5.5-1,8.3c2.1,0,4.2,0,6.3,0c-0.1,0.8-0.3,2.5-0.4,3.4
			c-2.1,0-4.2,0-6.4,0c-0.5,5.2-1.5,10.3-1.7,15.5c0.3,2.8,3.6,1.4,5.1,0.7c0.3,0.7,1,2.1,1.4,2.8c-2.5,1.5-5.6,2.9-8.5,1.7
			c-2-0.8-2.9-3-2.7-5c0.3-5.2,1.2-10.4,1.8-15.6c-1.1-0.1-2.3-0.1-3.4-0.2c0.1-0.7,0.1-2.1,0.2-2.8c1.2-0.2,2.5-0.4,3.8-0.5
			C-2356,507.8-2355.3,505.1-2354.6,502.4z"/>
		<g>
			<path class="st1" d="M-3018.7,510.4c3.3-1,6.9-0.5,10.2,0.3c-0.9,8-2,16-2.9,24c-1.3-0.1-2.6-0.3-4-0.4c0.1-1.9,0.2-3.7,0.4-5.6
				c-2,2.9-4.6,6.1-8.4,6.2c-2.8,0.3-5.4-1.8-6.1-4.4C-3032.2,522.4-3027,512.7-3018.7,510.4z M-3025,529.1c0.9,2.5,4.3,2.5,5.9,0.7
				c4.6-4.3,5.2-10.9,5.7-16.7C-3021.7,512.1-3027.7,521.8-3025,529.1z"/>
		</g>
		<path class="st1" d="M-2998.9,515.7c2.4-3.2,5.9-6.5,10.3-5.9c3.2,0.2,5,3.6,4.9,6.6c-0.2,6.1-1.4,12.1-1.9,18.2
			c-1.6,0-3.1,0-4.6,0c0.6-5.8,1.5-11.5,1.9-17.2c0.2-1.5-0.4-3.5-2.2-3.7c-2.6-0.3-4.8,1.6-6.2,3.6c-3.8,4.9-2.9,11.6-4,17.4
			c-1.5,0-3.1,0-4.6,0c1-8.2,2-16.4,2.9-24.6c1.3,0.1,2.6,0.2,3.9,0.3C-2998.7,512.1-2998.8,513.9-2998.9,515.7z"/>
		<g>
			<path class="st1" d="M-2973.2,510.7c5.3-2.5,10.7,1.3,16.2,0.3c0,2.5-2.1,3-4.1,3.5c0.6,3.5-0.9,6.8-2.7,9.7
				c-3,4.3,3.8,7.7,2,12.2c-2.1,7-11.5,8.4-17.4,5.7c-3.6-1.4-4.4-6.4-1.7-9c3.4-3.3,8.5-3.3,12.9-3c0.1-1.5,0.3-3,0.4-4.5
				c-2.9,1-6.6,1.4-9-1C-2980.3,520.4-2978.3,512.9-2973.2,510.7z M-2972.1,514c-2.7,2.2-3.4,8.3,0.7,9.4c4.6,1,7.4-5,5.6-8.6
				C-2967,512.5-2970.3,512.5-2972.1,514z M-2976.8,534.3c-1.6,1-1.8,3.5-0.3,4.7c4.4,3,12.6,0.3,11.2-5.9
				C-2969.5,532.8-2973.6,532.1-2976.8,534.3z"/>
		</g>
		<path class="st1" d="M-2935.8,510.3c3.7-1.3,7.7-0.1,10.4,2.7c-0.7,0.9-1.4,1.8-2.1,2.7c-2.2-1.3-4.8-2.9-7.4-1.6
			c-4.2,2-5.8,7.2-5.6,11.6c0,2.5,1.5,5.3,4.2,5.7c3.1,0.6,5.5-1.6,7.8-3.2c0.6,0.7,1.3,1.4,1.9,2.2c-2.3,2.1-4.7,4.4-8,4.6
			c-3.8,0.7-8.1-0.9-9.6-4.7C-2947.1,522.9-2943.6,512.9-2935.8,510.3z"/>
		<g>
			<path class="st1" d="M-2842.6,511.4c3.5-2,8.6-2.4,11.6,0.6c2.4,2.5,1.7,7-1.3,8.7c-3.9,2.4-8.5,2.7-12.9,3.4
				c0.3,2.5,0.4,5.8,3.2,6.8c3.5,1.5,7-0.7,9.7-2.8c0.6,0.4,1.8,1.2,2.4,1.6c-3.8,5.5-13.2,7.7-17.8,2
				C-2851.8,525.1-2849,515.4-2842.6,511.4z M-2844.8,521c3.5-0.7,7.7-0.7,10.5-3.3c1.6-1.7,0.2-4.5-2.1-4.5
				C-2841,512.7-2843.6,517.2-2844.8,521z"/>
		</g>
		<path class="st1" d="M-2820,515.7c2.4-3.2,5.9-6.5,10.3-5.9c3.2,0.3,5,3.6,4.9,6.6c-0.2,6.1-1.4,12.1-1.9,18.2c-1.6,0-3.1,0-4.6,0
			c0.6-5.7,1.5-11.4,1.9-17.2c0.2-1.5-0.4-3.5-2.1-3.7c-2.6-0.4-4.8,1.5-6.2,3.4c-3.9,4.9-3,11.6-4,17.5c-1.6,0-3.1,0-4.6,0
			c1-8.2,2-16.4,2.9-24.6c1.3,0.1,2.6,0.3,3.9,0.4C-2819.7,512.2-2819.8,514-2820,515.7z"/>
		<g>
			<path class="st1" d="M-2783.2,516.3c2.3-3.2,5.4-6.8,9.7-6.5c3.1-0.1,5.5,2.7,5.9,5.6c1.2,6.8-1.3,14.8-7.5,18.5
				c-3.2,1.9-7.2,1-10-1.2c-0.3,3.4-0.7,6.8-1.2,10.2c-1.5,0-3,0-4.5,0c1.3-10.9,2.7-21.9,4-32.8c0.9,0,2.8,0.1,3.8,0.1
				C-2783,512.2-2783.1,514.3-2783.2,516.3z M-2777.9,514.2c-4.9,3.4-6.4,9.7-6.7,15.3c2.2,1.7,5.5,2.7,7.9,0.8
				c4-3.2,5.4-8.9,4.5-13.8C-2772.5,513.9-2775.8,512.6-2777.9,514.2z"/>
		</g>
		<g>
			<path class="st1" d="M-2649.4,510.6c3.5-1.3,7.3-0.8,10.8,0.1c-0.9,8-1.9,16-2.9,24c-1.3-0.1-2.7-0.2-4-0.4
				c0.1-1.9,0.2-3.7,0.4-5.6c-2,2.9-4.7,6.1-8.5,6.2c-2.8,0.2-5.3-1.9-6.1-4.5C-2662.1,522.6-2657.2,513.2-2649.4,510.6z
				 M-2655,529.2c0.9,2.5,4.3,2.5,5.8,0.7c4.7-4.3,5.2-10.9,5.8-16.8C-2651.7,512.1-2657.7,521.8-2655,529.2z"/>
		</g>
		<path class="st1" d="M-2628.8,515.7c2.4-3.3,5.9-6.5,10.2-5.9c3.2,0.2,5,3.7,4.9,6.6c-0.3,6.1-1.3,12.1-1.9,18.2
			c-1.6,0-3.1,0-4.6,0c0.6-5.7,1.5-11.4,1.9-17.2c0.3-1.9-1-4.2-3.1-3.8c-3.8,0.6-6,4.2-7.4,7.5c-1.2,4.4-1.2,9-1.9,13.5
			c-1.5,0-3.1,0-4.6,0c1-8.2,2-16.4,2.9-24.6c1.3,0.1,2.6,0.2,3.8,0.3C-2628.6,512.1-2628.7,513.9-2628.8,515.7z"/>
		<g>
			<path class="st1" d="M-2603.2,510.8c5.2-2.6,10.6,1.3,16,0.2c-0.1,0.6-0.2,1.8-0.2,2.4c-1.2,0.3-2.4,0.6-3.6,1
				c0.8,3.8-1.1,7.2-2.9,10.4c-2.1,4.2,4,7.3,2.3,11.6c-2.1,7-11.5,8.4-17.4,5.7c-3.6-1.4-4.4-6.4-1.7-9c3.4-3.3,8.5-3.3,12.9-3
				c0.1-1.5,0.3-3,0.4-4.5c-2.9,1-6.7,1.4-9-1.1C-2610.3,520.4-2608.3,512.9-2603.2,510.8z M-2601.3,513.5c-3.4,1.8-4.4,8.5-0.1,9.9
				c4.6,1,7.5-5,5.7-8.7C-2596.8,512.8-2599.5,512.6-2601.3,513.5z M-2606.1,533.8c-1.7,0.8-2.6,2.9-1.5,4.6
				c4,3.9,13.4,1.1,11.8-5.3C-2599.2,532.8-2602.9,532.2-2606.1,533.8z"/>
		</g>
		<path class="st1" d="M-2568.6,515.7c2.3-3.2,5.7-6.4,9.9-5.9c3.4,0.1,5.3,3.6,5.1,6.7c-0.2,6.1-1.4,12.1-1.9,18.1
			c-1.5,0-3.1,0-4.6,0c0.6-6,1.7-12,1.9-18c0.2-2.2-2.2-3.6-4.1-2.7c-3.4,1.3-5.5,4.8-6.6,8.1c-0.8,4.2-1,8.5-1.6,12.7
			c-1.6,0-3.1,0-4.6,0c1-8.2,2-16.4,2.9-24.5c1.3,0.1,2.5,0.1,3.8,0.2C-2568.4,512.1-2568.5,513.9-2568.6,515.7z"/>
		<g>
			<path class="st1" d="M-2519.4,514.6c4.2-4.8,11.1-5.7,16.9-3.9c-0.8,8-1.9,16-2.9,24c-0.9,0-2.8,0-3.8,0c-0.1-2,0-3.9,0.2-5.8
				c-2.3,4.2-8.1,8.6-12.6,4.8C-2526.3,528.1-2524,519.4-2519.4,514.6z M-2518.7,529.6c1.1,2.1,4.1,1.9,5.6,0.4
				c4.7-4.2,5.3-10.9,5.8-16.8C-2515.8,512-2521.9,522.2-2518.7,529.6z"/>
		</g>
		<path class="st1" d="M-2492.7,515.7c2.3-3.2,5.8-6.5,10.1-5.9c3.3,0.2,5.1,3.6,5,6.6c-0.2,6.1-1.4,12.1-1.9,18.1
			c-1.6,0-3.1,0-4.6,0c0.5-6.1,1.7-12.1,1.9-18.2c0-3.6-4.6-3.3-6.4-1.3c-5.8,4.7-4.8,12.8-5.9,19.5c-1.5,0-3.1,0-4.6,0
			c1-8.2,2-16.4,2.9-24.6c1.3,0.1,2.5,0.2,3.8,0.3C-2492.6,512.1-2492.6,513.9-2492.7,515.7z"/>
		<path class="st1" d="M-2430.4,515.8c2.3-3.2,5.7-6.4,9.9-6c3.4,0,5.4,3.6,5.2,6.7c-0.3,6.1-1.4,12.1-1.9,18.1c-1.5,0-3.1,0-4.6,0
			c0.6-5.4,1.3-10.8,1.8-16.2c0.1-1.7,0.2-4.2-1.8-4.7c-2.8-0.6-5.2,1.6-6.7,3.7c-3.7,4.9-2.7,11.4-3.8,17.1c-1.6,0-3.1,0-4.6,0
			c1-8.2,2-16.4,2.9-24.5c1,0,2.9,0.1,3.8,0.2C-2430.2,512.1-2430.3,513.9-2430.4,515.8z"/>
		<path class="st1" d="M-2895,510.1c1.5,0,3.1,0,4.6,0c-0.6,5.5-1.4,10.9-1.9,16.4c-0.1,1.5-0.2,3.6,1.5,4.4c2.6,0.9,5.1-1.1,6.6-3
			c4.1-5,3-11.8,4.2-17.7c1.5,0,3.1,0,4.6,0c-1,8.2-2,16.4-2.9,24.6c-1.3,0-2.6-0.2-3.8-0.7c-0.1-1.6-0.1-3.3,0.1-4.9
			c-2.4,3.3-6.1,6.5-10.5,5.6c-3.3-0.6-4.7-4.3-4.5-7.3C-2896.6,521.7-2895.6,515.9-2895,510.1z"/>
		<path class="st1" d="M-2871.8,510.2c1.5,0,3-0.1,4.6-0.1c1.9,5.8,3.2,11.8,4.6,17.7c2.9-5.9,5.7-11.9,8.9-17.6
			c1.4,0,2.9,0,4.3,0.1c-5.7,10.9-11.3,21.9-17.1,32.7c-1.5,0-3,0-4.4,0.1c1.8-3.3,3.5-6.5,5.3-9.7
			C-2867.5,525.5-2869.7,517.8-2871.8,510.2z"/>
		<g>
			<path class="st1" d="M-2738,531c-3-8.5,2.8-18.9,11.6-20.8c3.1-0.8,6.3-0.1,9.3,0.5c-0.9,8-2,15.9-2.9,23.9
				c-1.3,0-2.6,0.1-3.9,0.1c0-2,0-3.9,0.2-5.8c-1.9,2.7-4.3,5.7-7.8,6.1C-2734.3,535.4-2737.1,533.6-2738,531z M-2733.4,529.4
				c1.1,2.4,4.5,2,6,0.3c4.4-4.3,5-10.8,5.5-16.5C-2730.4,512.1-2736.4,522.1-2733.4,529.4z"/>
		</g>
		<g>
			<path class="st1" d="M-2385.1,531.2c-3.2-8.6,2.7-19.1,11.6-21c3.1-0.8,6.2-0.1,9.2,0.6c-0.9,8-1.9,15.9-2.9,23.9
				c-0.9,0-2.8,0-3.8,0c-0.1-1.9,0-3.9,0.2-5.8c-1.9,2.7-4.3,5.7-7.8,6.1C-2381.3,535.4-2384.1,533.7-2385.1,531.2z M-2380.5,529.5
				c1,2.2,4,2.1,5.6,0.5c4.8-4.2,5.4-11,5.9-16.9C-2377.5,512.1-2383.6,522.1-2380.5,529.5z"/>
		</g>
		<path class="st1" d="M-3022.1,537.8c2.1-0.7,4.3,1.5,3.6,3.6c-0.4,2.3-4,3.2-5.2,1C-3024.8,540.9-3023.9,538.4-3022.1,537.8z"/>
	</g>
	<g>
		<path class="st0" d="M-2676.5-57.6c19.2-2.6,39.6-0.9,57,8.1c12,6.1,22,17.1,24.3,30.7c-27.6,15.9-58,26.5-88.9,33.6
			c-22.1,5.1-44.7,8.4-67.4,10.1c-1.6,0-3.3,0.4-4.8-0.2c-3.5-6.3-3.6-13.9-2.6-20.8c2.6-14.6,12.2-27,23.4-36.4
			C-2718.8-46.3-2697.9-54.5-2676.5-57.6z"/>
		<path class="st0" d="M-2778.2,134.8c7.4-11.6,16.5-22.1,26.9-31.1c11.6,15.8,28.8,26.9,47.6,32.2c31.2,9.1,65.7,3.5,93.4-13
			c0.8,2.3,1.7,4.5,2.5,6.8c-7.7,5.8-15.4,11.6-23.1,17.4c-1.9,1.2-3.1,3.3-2.9,5.6c0,8.9,0,17.9,0,26.8
			c-6.8-4.6-13.4-9.5-20.2-14.1c-4.9-3.3-11.9-1.2-15.2,3.4c-3.7,4.7-3.6,12.5,1.5,16.1c11.2,8.1,22.7,15.8,33.9,24
			c-0.1,11.6,0.1,23.2-0.1,34.8c0.1,2.2-2,3.6-3.3,5.2c-11.4,12.8-26.3,23-43.2,26.7c-17.8,4.1-36.6,0.6-53-6.8
			c6-9.4,12.1-18.7,18.2-28c3.4-5,2.6-12.4-1.8-16.5c-4-4-10.8-4.8-15.6-1.9c-2.7,1.5-4.4,4.2-6.1,6.8c-5.6,8.9-11.5,17.6-17.1,26.5
			c-11.5-7.8-21.5-18-28.8-29.9c-8-13.1-12-28.8-10.7-44.2C-2794.1,164.7-2787.2,148.8-2778.2,134.8z"/>
	</g>
	<g>
		<path class="st2" d="M-2735.6,37.4c52.7-5.9,105.4-19.4,151.2-46.8c8.2,2.3,16.3,5.1,24,8.7c4.4,2.1,8.9,4.4,12,8.2
			c-5.5,5.7-13.4,7.7-20.5,10.5c-33.1,11.8-67.5,19.7-102.5,23.1C-2692.7,42.9-2714.8,43.2-2735.6,37.4z"/>
	</g>
	<g>
		<g>
			<path class="st3" d="M-2683.6,55.6c35-1.6,69.6-8.9,103-19.3c3.5,22.1-6.7,44.5-22.7,59.4c-3.1,1.9-6.6,2.8-10,4.1
				c-12.2,3.9-25.5,6-38,2.5c-8-2.2-15.1-7.3-19.9-14c-2.8,2-5.6,4-8.4,5.9c6.6,9.9,17.3,16.6,28.9,18.9c6.6,1.4,13.5,1.6,20.2,1.1
				c-20.5,9-43.9,11.7-65.7,6.2c-15.8-4-30.7-12.6-40.6-25.7c-10.1-13.1-14.1-30.5-10.7-46.6C-2727.1,55.3-2705,56.5-2683.6,55.6z
				 M-2606.1,57.9c-5.4,3-4.1,12,1.8,13.6c4.8,1.8,9.7-3.3,8.6-8.1C-2596.2,58.7-2601.9,55.3-2606.1,57.9z M-2664.3,67.6
				c-5.3,2.7-4.6,11.4,0.9,13.6c4.4,2.2,9.7-1.9,9.4-6.7C-2653.8,69.4-2659.6,65-2664.3,67.6z"/>
		</g>
	</g>
	<g>
		<path class="st4" d="M-2588.3,129.7c1-0.9,2.4-1.1,3.7-1c27.2,0,54.4,0,81.7,0c-7.3,5.5-14.6,11-21.9,16.5c-1,0.9-2.3,1.1-3.6,1
			c-27.3,0-54.5,0-81.8,0C-2602.9,140.7-2595.6,135.2-2588.3,129.7z"/>
		<path class="st4" d="M-2518.1,155.1c9.1-6.8,18.1-13.6,27.2-20.4c-0.1,29.7,0.1,59.4-0.1,89.1c-9.1,6.7-18.1,13.6-27.2,20.3
			C-2518.1,214.4-2518.1,184.8-2518.1,155.1z"/>
		<path class="st4" d="M-2622.1,187.7c0-9.9,0-19.8,0-29.6c30.7,0,61.4,0,92,0c0,30.7,0,61.4,0,92c-30.7,0-61.4,0-92.1,0
			c0-11.1,0-22.1,0-33.2c3.4,2.9,7.6,6.4,12.5,4.8c11.7-4,23.3-8.3,34.9-12.5c6.3-2.4,7.9-10.9,4.9-16.4c-2.3-4.9-8.2-8.3-13.5-6.3
			c-9,3.1-17.9,6.5-26.9,9.6C-2614.1,193.3-2618.1,190.5-2622.1,187.7z"/>
	</g>
	<g>
		<path class="st5" d="M-2768.5,353.5c31.7-0.7,63.4-0.8,95.1-0.1c19.6,0.5,39.3,0.9,58.9,2.7c3.9,0.5,7.9,0.6,11.6,1.9
			c0.2,0.3,0.6,0.9,0.9,1.2c-10.6,2.6-21.5,2.6-32.3,3.4c-47.3,2.1-94.8,2.1-142.2,0.9c-15.4-0.5-30.7-1-46-2.5
			c-3.7-0.5-7.6-0.6-10.9-2.4c4.4-2,9.2-2.1,13.9-2.6C-2802.6,354.5-2785.6,354-2768.5,353.5z"/>
	</g>
</g>
<rect x="-1372" y="-90" class="st0" width="864" height="648"/>
<g>
	<g>
		<path class="st1" d="M-909.5-48.2c19.7-2.5,40.1-1,58.6,6.6c13.8,5.6,26.4,15.1,33.8,28.2c3.3,5.6,5.1,11.8,6.6,18
			c10.9,3.2,21.8,6.9,31.4,13c4.7,3.1,9.5,7.1,11.3,12.7c1.7,5.1-0.3,10.8-4,14.4c-6.7,6.6-16,9.3-24.5,12.6
			c2.7,13.8,1.4,28.3-3.5,41.5c-5.7,15.7-16,29.4-28.6,40.2c0.9,2.1,1.7,4.1,2.6,6.2c1.6-0.9,3.3-2.1,5.2-1.9c34.7,0,69.4,0,104.1,0
			c3.4,0,5.9,3.4,5.5,6.6c0,34,0,68,0,101.9c0.1,2.3-0.5,4.7-2.5,6c-12,9.1-24.1,18-36,27.1c-2.1,1.5-4.2,3.7-7,3.4
			c-33.9,0-67.9,0-101.8,0c-4.9,5.3-10.3,10.1-16.1,14.4c10.9,17.4,21.8,34.7,32.7,52c6.9-3.5,13.6-7.1,20.5-10.5
			c5.4-2.4,11.7,1.2,14,6.2c2.6,4.9,1.5,12.2-3.7,14.8c-8.5,4.5-17.2,8.8-25.8,13.3c-2.8,1.5-5.6,3.4-8.8,3.5
			c-4.2,0.1-8.1-2.4-10.4-5.9c-14.2-20.1-28.5-40.1-41.1-61.3c-25.3,9.5-53.9,5.9-77.9-5.6c-4.1,6.2-8.1,12.6-12.3,18.8
			c-2.9,4.3-8.5,6.4-13.5,5.3c-14.4-2.9-28.7-5.9-43.1-8.9c-4.8,9.5-9.4,19.2-14.3,28.7c-3.1,6.1-11.5,7.2-17.1,4.1
			c-5.6-2.7-9.4-9.8-6.5-15.8c5.3-10.9,10.8-21.8,16.2-32.7c1.7-3.5,2.7-7.6,5.9-10.2c2.4-2.2,5.9-2.9,9.1-2
			c15.5,3.3,31.1,6.3,46.6,9.7c2.4-3.3,4.5-6.7,6.7-10.1c-14-10-26.5-22.5-35.1-37.6c-7.6-13.3-12-28.5-12.1-43.9
			c-0.2-18,5.1-35.7,13.4-51.6c9.7-18.5,23.2-35,39.3-48.4c-6.3-14.9-7.4-31.8-3.6-47.5c-5.3-3.8-9.2-9.3-11-15.6
			c-4.2-14.4-1.4-30.2,5.5-43.3c7.2-13.7,18.4-25.1,31-34C-952-37.8-931-45.4-909.5-48.2z M-908.5-31.2
			c-21.4,3.1-42.2,11.3-58.9,25.2c-11.2,9.4-20.8,21.7-23.4,36.4c-1.1,6.9-0.9,14.6,2.6,20.8c1.5,0.6,3.2,0.2,4.8,0.2
			c22.7-1.7,45.2-5,67.4-10.1c30.9-7.2,61.3-17.7,88.9-33.6C-829.5-6-839.6-17-851.5-23.1C-868.9-32.1-889.3-33.8-908.5-31.2z
			 M-967.6,63.8c20.8,5.8,42.9,5.5,64.3,3.7c34.9-3.4,69.4-11.3,102.5-23.1c7.1-2.9,15-4.8,20.5-10.5c-3.1-3.9-7.6-6.1-12-8.2
			c-7.7-3.6-15.8-6.4-24-8.7C-862.2,44.4-914.9,57.9-967.6,63.8z M-915.6,82c-21.5,0.9-43.5-0.3-63.9-7.6
			c-3.4,16.1,0.7,33.6,10.7,46.7c9.9,13.1,24.8,21.7,40.6,25.7c21.8,5.5,45.2,2.8,65.7-6.2c-6.7,0.5-13.6,0.4-20.2-1
			c-11.6-2.3-22.3-9-28.9-18.9c2.8-1.9,5.6-3.9,8.4-5.9c4.8,6.7,11.9,11.9,19.9,14c12.5,3.5,25.8,1.4,38-2.5c3.4-1.2,6.9-2.1,10-4.1
			c16-14.9,26.2-37.3,22.7-59.4C-846,73-880.5,80.4-915.6,82z M-1010.2,161.2c-9,14.1-15.8,29.9-17.1,46.7
			c-1.3,15.4,2.6,31.1,10.7,44.2c7.3,11.9,17.3,22.1,28.8,29.9c5.5-8.9,11.4-17.6,17.1-26.5c1.6-2.6,3.3-5.3,6.1-6.8
			c4.9-3,11.6-2.2,15.6,1.9c4.4,4.1,5.2,11.5,1.8,16.5c-6,9.4-12.1,18.6-18.2,28c16.5,7.3,35.2,10.8,53,6.8
			c16.9-3.7,31.8-13.9,43.2-26.7c1.2-1.6,3.3-3,3.3-5.2c0.1-11.6-0.1-23.2,0.1-34.8c-11.2-8.1-22.7-15.9-33.9-24
			c-5.1-3.6-5.2-11.5-1.5-16.1c3.3-4.6,10.3-6.8,15.2-3.4c6.8,4.6,13.4,9.5,20.2,14.1c0-8.9,0-17.8,0-26.8c-0.2-2.3,1-4.3,2.9-5.6
			c7.7-5.8,15.4-11.5,23.1-17.4c-0.8-2.3-1.6-4.5-2.5-6.8c-27.7,16.6-62.2,22.1-93.4,13c-18.7-5.4-36-16.5-47.5-32.3
			C-993.8,139-1002.8,149.6-1010.2,161.2z M-820.3,156.1c-7.3,5.5-14.6,11-21.9,16.5c27.3,0,54.5,0,81.8,0c1.3,0,2.6-0.1,3.6-1
			c7.3-5.5,14.7-11,21.9-16.5c-27.2,0-54.4,0-81.7,0C-817.9,155.1-819.2,155.2-820.3,156.1z M-750.1,181.5c0,29.7,0,59.4,0,89
			c9.1-6.7,18.1-13.6,27.2-20.3c0.1-29.7,0-59.4,0-89.1C-731.9,167.8-741,174.7-750.1,181.5z M-854.1,214.1c4,2.8,8,5.5,11.9,8.4
			c9-3.1,17.9-6.5,26.9-9.6c5.3-2,11.2,1.4,13.5,6.3c3,5.6,1.4,14-4.9,16.4c-11.6,4.2-23.2,8.5-34.9,12.5c-4.8,1.6-9-1.9-12.5-4.8
			c0,11.1,0,22.1,0,33.2c30.7,0,61.4,0,92.1,0c0-30.7,0-61.4,0-92c-30.7,0-61.4,0-92,0C-854.1,194.4-854.1,204.2-854.1,214.1z"/>
	</g>
	<path class="st1" d="M-1093,49.7c18.6-1.3,37.4-1.4,56,1c3.2,0.7,7.1,0.7,9.6,3.2c-0.3,1.4-2,1.6-3.1,2.1c-5.5,1.5-11.2,2-16.9,2.5
		c-15.6,1.1-31.3,1.1-46.9-0.2c-5.7-0.7-11.8-0.8-17-3.5c-0.3-1.8,1.7-2.1,2.9-2.6C-1103.4,50.6-1098.1,50.2-1093,49.7z"/>
	<path class="st1" d="M-838.1,84.3c4.2-2.6,9.9,0.8,10.4,5.6c1.1,4.8-3.8,9.9-8.6,8.1C-842.2,96.3-843.5,87.3-838.1,84.3z"/>
	<path class="st1" d="M-1120.6,92c18.6-2.3,37.6-2.2,56.3-0.9c6.1,0.8,12.6,0.8,18.1,3.9c-1.2,1.2-2.7,2.2-4.4,2.5
		c-8.2,1.9-16.6,2.3-24.9,2.7c-13.7,0.5-27.5,0.4-41.1-1c-4.9-0.6-10-1-14.5-3.4C-1128.6,92.6-1124.2,92.8-1120.6,92z"/>
	<path class="st1" d="M-896.3,94c4.6-2.6,10.5,1.8,10.3,6.9c0.4,4.7-4.9,8.8-9.3,6.7C-900.8,105.4-901.6,96.7-896.3,94z"/>
	<path class="st1" d="M-1157.4,235.5c13.2-1.6,26.6-1.7,39.9-1.4c9,0.3,18,0.7,26.8,2.4c2.2,0.4,4.2,1.3,6.1,2.5
		c-3.9,3.2-9.3,3.1-14,3.9c-18.9,1.9-38.1,1.9-57,0c-4.8-0.8-10.1-0.7-14-3.9C-1166,236.5-1161.6,236.1-1157.4,235.5z"/>
	<path class="st1" d="M-1123.3,271c18.2-2,36.6-2,54.9-0.6c5.9,0.6,12.1,1,17.5,3.7c-2,3.1-6.2,3-9.5,3.7c-18.9,2.5-38.1,2.4-57.1,1
		c-6.2-0.8-12.8-0.7-18.3-4.1C-1132.4,271.8-1127.6,271.7-1123.3,271z"/>
	<path class="st1" d="M-1334,434.4c6.5-7,16-10.9,25.5-11c9.6-0.3,19.9,2.6,26.4,10.1c2.9,3.2,1.2,9.5-3.5,9.8
		c-3.7,0.8-6.4-2.3-9.4-3.9c-8.4-5.1-20.4-4.8-27.8,2.2c-9.2,8.4-10.1,23.3-4.3,33.8c3.5,6.3,10.3,10.6,17.6,10.9
		c6.8,0.3,14.5-0.6,19.8-5.4c0.3-3.4,0-6.8,0.1-10.2c-5.5-0.1-11.1,0.3-16.6-0.2c-6.3-0.9-5.8-12,0.7-12c7.6-0.2,15.2-0.1,22.9-0.1
		c3.5-0.2,6.3,2.9,6,6.3c-0.1,6.6,0.5,13.3-0.3,19.9c-1.5,3.2-4.6,5.3-7.4,7.4c-8.8,5.9-20,7.2-30.3,5.6
		c-11.7-1.8-22-10.2-26.5-21.2C-1346.5,462.7-1344.6,445.3-1334,434.4z"/>
	<path class="st1" d="M-1129.5,429.8c-0.4-5.8,7.7-7.9,11.3-4.2c1.9,1.9,1.6,4.9,1.7,7.4c-0.1,6.5,0,13-0.1,19.5
		c8.3-7.9,23.7-6.4,29.9,3.4c4.7,6.7,3.9,15.2,3.9,23c-0.2,4.9,0.4,9.8-0.3,14.7c-1.3,6.1-12,5.7-12.6-0.6c-0.5-8,0.1-16-0.3-24
		c-0.2-2.7-1-5.7-3.3-7.4c-5.7-4.1-15.5-1.6-16.9,5.8c-1,8.5,0.1,17.1-0.6,25.6c-0.5,6-10.3,6.9-12.4,1.5c-0.6-1.8-0.5-3.6-0.5-5.4
		C-1129.4,469.2-1129.6,449.5-1129.5,429.8z"/>
	<path class="st1" d="M-745.6,425.8c3.3-3.5,11.1-2.3,11.4,3.1c0.3,11.8,0,23.5,0.1,35.3c6.3-4.9,12.6-9.9,19-14.8
		c2.1-1.8,5.3-2,7.7-0.7c3.1,1.8,3.4,6.8,0.7,9.1c-4.4,3.8-9.2,7.2-13.8,10.9c4.9,6.4,10,12.8,14.9,19.2c2.2,2.6,1.9,7.2-1.1,9
		c-2.5,1.4-6.1,1.3-7.9-1.1c-5.3-6.5-10.2-13.2-15.4-19.7c-1.4,1.1-2.7,2.2-4.1,3.3c-0.2,4.8,0.4,9.6-0.3,14.3
		c-1.5,5.5-10.9,5.5-12.4,0c-0.6-3-0.3-6-0.3-9c0-17.7,0-35.3,0-53C-747,429.8-747.1,427.4-745.6,425.8z"/>
	<path class="st1" d="M-1263.1,430.3c3.5-1.6,8.8-1.2,10.6,2.6c1.5,3.4,1.1,8.5-2.6,10.4c-3.6,1.7-9.2,1.1-10.8-3.1
		C-1267.1,436.9-1266.6,432.1-1263.1,430.3z"/>
	<path class="st1" d="M-860.2,430.2c4.4-2.2,11.2,0,11.1,5.7c1,4.9-3.5,9.3-8.4,8.3C-864.6,444.1-866,433-860.2,430.2z"/>
	<path class="st1" d="M-693.1,430.4c3.6-1.8,9.3-1.3,11,2.9c1.2,3.4,0.8,8.3-2.9,10.1c-3.6,1.6-9.2,0.9-10.7-3.3
		C-696.8,436.8-696.4,432.3-693.1,430.4z"/>
	<path class="st1" d="M-893,434.4c1.4-5.8,11.6-5.5,12.5,0.5c0.5,4.6,0.1,9.2,0.2,13.8c3.2,0,6.5-0.3,9.7,0.4
		c4.4,1.5,4.4,9.1,0.1,10.6c-3.2,0.7-6.5,0.3-9.8,0.4c-0.1,10.9,0.2,21.9-0.2,32.8c-0.5,6.7-12.2,6.6-12.7-0.1
		c-0.4-10.9,0-21.8-0.2-32.7c-2.7,0-5.4,0.2-8.1-0.2c-5.2-0.9-5.2-9.9,0-10.9c2.7-0.4,5.4-0.3,8.1-0.3
		C-893.2,443.9-893.8,439.1-893,434.4z"/>
	<path class="st1" d="M-777.3,435c0.8-6.2,11.5-6.3,12.6-0.2c0.5,4.6,0.1,9.3,0.2,13.9c3.3,0.1,6.6-0.3,9.8,0.4
		c4.3,1.6,4.3,9,0,10.6c-3.2,0.7-6.5,0.3-9.8,0.4c0,10,0,19.9,0,29.9c-0.1,1.7,0.1,3.5-0.8,5c-2.6,4.7-11.5,3.7-12.1-2
		c-0.4-10.9,0-21.9-0.2-32.8c-2.9-0.1-5.9,0.3-8.8-0.4c-4.3-1.6-4.3-8.9-0.1-10.6c2.9-0.8,5.9-0.4,8.8-0.5
		C-777.4,444.1-777.8,439.5-777.3,435z"/>
	<path class="st1" d="M-1262.1,448.4c2.8-1,6.5-0.7,8.4,1.8c1.5,2.3,1,5.1,1.2,7.7c-0.2,11.6,0.2,23.3-0.2,34.9
		c-0.5,6-10,6.8-12.3,1.7c-0.7-1.8-0.6-3.8-0.6-5.7c0.1-11.3,0-22.6,0-34C-1265.8,452.3-1264.7,449.4-1262.1,448.4z"/>
	<g>
		<path class="st1" d="M-1240.8,453.7c2.9-4.2,8.5-5,13.2-5.8c8.5-1,18.6-0.5,24.7,6.4c5,5.6,4.7,13.6,4.6,20.6
			c-0.2,6.3,0.4,12.7-0.3,19c-1.5,5.5-9.9,5.2-12.3,0.6c-7.7,5.4-19.2,5.4-26.7-0.4c-7-5.3-7.2-17-0.4-22.6c7.5-6,18.8-5.8,26.9-1.1
			c-0.3-3.5-0.7-7.8-4.1-9.7c-6.1-3.2-13.1-0.9-19.2,1C-1239,463.2-1243.1,457.7-1240.8,453.7z M-1225.1,477.3
			c-4.9,0.2-6.7,7.2-2.5,9.7c4.4,2.1,10.3,1.9,14.4-0.9c2.1-1.3,2.7-4.6,0.8-6.3C-1215.8,476.7-1220.8,476.5-1225.1,477.3z"/>
	</g>
	<g>
		<path class="st1" d="M-1170.3,448.1c8-1.6,16.9-0.1,23.1,5.5c10.4,8.9,11.2,26.5,2,36.6c-9.4,10.8-28.4,10.9-37.9,0.3
			c-9.2-9.8-8.8-26.9,1-36.1C-1178.9,451.2-1174.7,449-1170.3,448.1z M-1168.1,459.5c-10.7,3.3-11.5,20.7-2,25.9
			c5.1,2.5,12.3,1.5,15.6-3.5c3.5-5.3,3.5-12.8,0-18.1C-1157.3,459.5-1163.2,458.2-1168.1,459.5z"/>
	</g>
	<g>
		<path class="st1" d="M-1071.2,453.3c3-3.8,8.2-4.6,12.6-5.4c7.7-0.9,16.4-0.8,22.9,4.2c5.4,4.1,7,11.3,6.8,17.8
			c-0.2,7.8,0.3,15.7-0.2,23.5c-1.1,5.8-9.9,5.9-12.3,1c-8.1,5.5-20.1,5.5-27.6-1c-6.6-5.8-6-17.7,1.3-22.7
			c7.6-5.1,18.1-4.8,25.9-0.4c-0.2-3.6-0.7-8-4.3-9.8c-6.2-3.1-13.2-0.6-19.4,1.2C-1070.2,462.9-1073.9,457.1-1071.2,453.3z
			 M-1056.1,477.4c-4.8,0.4-6.1,7.7-1.9,9.8c4.6,1.9,10.4,1.8,14.4-1.4c2-1.4,2.3-4.6,0.3-6.2
			C-1046.7,476.6-1051.8,476.5-1056.1,477.4z"/>
	</g>
	<path class="st1" d="M-1015.2,449.2c3.7-2.6,9.5-1.2,10.9,3.3c8.5-8.1,24.3-6.2,30.2,4.1c4.5,7,3.3,15.6,3.4,23.4
		c-0.1,4.5,0.3,9.1-0.3,13.6c-1.3,6.1-12,5.7-12.6-0.6c-0.5-8,0.1-16-0.2-24c-0.2-3-1.2-6.3-4-7.9c-2.9-1.7-6.5-1.8-9.7-0.9
		c-3.9,1.2-6.6,5-6.8,9c-0.4,7.9,0.2,15.9-0.3,23.8c-0.5,6-10.4,6.8-12.4,1.4c-0.6-1.7-0.5-3.6-0.5-5.4c0.1-11,0-22.1,0-33.1
		C-1017.5,453.5-1017.3,450.7-1015.2,449.2z"/>
	<g>
		<path class="st1" d="M-956.5,455.9c7.5-9.7,23.6-11.4,32.6-3c0.9-2.8,3.2-5.3,6.4-4.9c3.4-0.3,6.6,2.5,6.3,6
			c0.1,13.3,0.1,26.6,0,39.9c-0.1,7.5-3,15.6-9.8,19.6c-8.2,4.7-18.4,4.6-27.3,2.3c-3.8-1.4-8.4-2.5-10.6-6.2c-2.1-4,2-9,6.3-7.9
			c3.7,1.3,7,3.7,11,4.2c4.6,0.7,9.7,0.6,13.6-2.2c3.7-2.9,3.6-8,3.8-12.2c-7,6.4-18.1,6.8-26.2,2.2
			C-963.1,486.3-965.4,467.1-956.5,455.9z M-940.1,459.4c-9,2.4-11.3,15.1-5.5,21.7c4,4.9,12,5.4,16.8,1.5
			c6.3-5.1,6.3-16.2-0.1-21.2C-932.1,458.9-936.4,458.4-940.1,459.4z"/>
	</g>
	<path class="st1" d="M-859.2,448.3c2.6-0.8,5.9-0.6,7.8,1.5c1.5,1.6,1.5,4,1.5,6c0,11.4,0,22.7,0,34.1c0,2,0,4.4-1.5,6
		c-3.6,3.8-11.9,1.9-11.5-4.1c-0.2-12.3,0-24.7-0.1-37C-863.1,452.2-861.9,449.2-859.2,448.3z"/>
	<g>
		<path class="st1" d="M-834.6,455.9c7-8.5,20.1-10.9,29.8-5.8c8.4,4.6,12.9,14.5,12.2,23.9c-0.1,2.5-2.6,4.1-5,3.9
			c-9.9,0.2-19.8,0-29.7,0.1c0.9,2.9,2,6.2,5,7.7c6,3.1,13.6,1.6,18.3-3.1c2.6-3,8.3-2.6,9.6,1.4c1.1,2.8-0.5,5.7-2.6,7.6
			c-6.6,6.6-16.8,7.9-25.6,6c-7.9-1.7-14.5-8-16.8-15.8C-841.9,473.1-840.7,462.9-834.6,455.9z M-826.8,466.8
			c7.3,0.1,14.6,0.1,21.9,0c-1.7-5.2-6.9-9.2-12.5-8.2C-822.2,458.7-825.7,462.5-826.8,466.8z"/>
	</g>
	<path class="st1" d="M-692,448.5c3.9-1.9,9.9,0.4,9.6,5.3c0.1,12.7,0.1,25.4,0,38.1c0.4,6.1-8.5,8-11.8,3.7
		c-1.2-1.6-1.2-3.7-1.2-5.6c0-11.7,0-23.5,0-35.2C-695.5,452.3-694.6,449.5-692,448.5z"/>
	<g>
		<path class="st1" d="M-666.8,455.6c6.7-7.8,18.5-10.2,27.9-6.3c7.8,3.4,12.9,11.4,13.7,19.7c0.2,2.4,0.8,5.3-0.9,7.4
			c-1.3,1.6-3.6,1.5-5.5,1.6c-9.4,0-18.8-0.1-28.2,0c0.9,3,2.1,6.3,5.2,7.8c5.1,2.4,11.7,2,16.2-1.7c2.1-1.5,4-3.9,6.8-3.5
			c2.4,0,4.7,1.8,5,4.2c0.8,3-1.5,5.6-3.6,7.5c-6.6,5.9-16.4,7-24.8,5.2c-7.8-1.7-14.3-7.8-16.7-15.4
			C-674.4,473.3-673.2,462.7-666.8,455.6z M-659.3,466.8c7.3,0.1,14.6,0.1,21.9,0c-1.3-3.1-3.3-6.1-6.5-7.4
			C-650,456.7-658,459.9-659.3,466.8z"/>
	</g>
	<path class="st1" d="M-615.3,452.8c0.8-6.5,11.3-6.5,12.9-0.4c8-7.7,22.6-6.3,29,2.7c7.9-9.7,25.3-10.7,33.1-0.4
		c5,6.6,4.3,15.3,4.3,23.1c-0.2,5.3,0.4,10.7-0.3,16c-1.5,5.6-11.4,5.4-12.4-0.4c-0.9-9.2,0.6-18.5-0.8-27.6
		c-1.6-7.4-12.5-8.1-16.8-2.8c-3.8,4-2.6,9.9-2.8,14.9c-0.2,5.3,0.4,10.6-0.3,15.9c-1.5,5.6-11.2,5.4-12.5-0.2
		c-1-9.2,0.5-18.5-0.8-27.6c-0.9-4.8-6.2-7.1-10.7-6.3c-4.8,0.3-8.6,4.7-8.8,9.4c-0.4,8,0.2,15.9-0.3,23.9c-0.6,6-10.4,6.7-12.4,1.3
		c-0.9-3-0.4-6.3-0.5-9.4C-615.4,474.2-615.8,463.5-615.3,452.8z"/>
	<g>
		<path class="st0" d="M-908.5-31.2c19.2-2.6,39.6-0.9,57,8.1c12,6.1,22,17.1,24.3,30.7c-27.6,15.9-58,26.5-88.9,33.6
			c-22.1,5.1-44.7,8.4-67.4,10.1c-1.6,0-3.3,0.4-4.8-0.2c-3.5-6.3-3.6-13.9-2.6-20.8c2.6-14.7,12.2-27,23.4-36.4
			C-950.8-19.9-929.9-28.1-908.5-31.2z"/>
		<path class="st0" d="M-1010.2,161.2c7.4-11.6,16.5-22.1,26.9-31.1c11.6,15.8,28.8,26.9,47.5,32.3c31.2,9.1,65.7,3.5,93.4-13
			c0.8,2.3,1.6,4.5,2.5,6.8c-7.7,5.8-15.4,11.6-23.1,17.4c-1.9,1.2-3.1,3.3-2.9,5.6c0,8.9,0,17.9,0,26.8
			c-6.8-4.6-13.4-9.5-20.2-14.1c-4.9-3.3-11.9-1.2-15.2,3.4c-3.7,4.7-3.6,12.5,1.5,16.1c11.2,8.1,22.7,15.8,33.9,24
			c-0.1,11.6,0,23.2-0.1,34.8c0,2.2-2.1,3.6-3.3,5.2c-11.4,12.8-26.3,23-43.2,26.7c-17.8,4.1-36.6,0.6-53-6.8
			c6-9.4,12.1-18.6,18.2-28c3.4-5,2.6-12.4-1.8-16.5c-4-4-10.8-4.8-15.6-1.9c-2.7,1.5-4.4,4.2-6.1,6.8c-5.6,8.9-11.5,17.6-17.1,26.5
			c-11.5-7.8-21.5-18-28.8-29.9c-8-13.2-12-28.8-10.7-44.2C-1026.1,191.1-1019.2,175.2-1010.2,161.2z"/>
	</g>
	<g>
		<path class="st2" d="M-967.6,63.8c52.7-5.8,105.4-19.4,151.2-46.8c8.2,2.3,16.3,5.1,24,8.7c4.4,2.1,8.9,4.4,12,8.2
			c-5.5,5.7-13.4,7.6-20.5,10.5c-33.1,11.8-67.5,19.7-102.5,23.1C-924.7,69.3-946.8,69.6-967.6,63.8z"/>
	</g>
	<g>
		<g>
			<path class="st3" d="M-915.6,82c35-1.6,69.6-8.9,103-19.2c3.5,22.1-6.7,44.5-22.7,59.4c-3.1,1.9-6.6,2.8-10,4.1
				c-12.2,3.9-25.5,6-38,2.5c-8-2.2-15.1-7.3-19.9-14c-2.8,2-5.5,4-8.4,5.9c6.6,9.9,17.3,16.6,28.9,18.9c6.6,1.4,13.5,1.6,20.2,1
				c-20.5,9-43.9,11.7-65.7,6.2c-15.8-4-30.7-12.6-40.6-25.7c-10.1-13.1-14.1-30.5-10.7-46.7C-959.1,81.7-937,82.8-915.6,82z
				 M-838.1,84.3c-5.3,3-4.1,12,1.8,13.6c4.8,1.8,9.7-3.3,8.6-8.1C-828.2,85.1-833.9,81.7-838.1,84.3z M-896.3,94
				c-5.3,2.7-4.6,11.4,0.9,13.5c4.4,2.2,9.7-1.9,9.3-6.7C-885.8,95.8-891.6,91.4-896.3,94z"/>
		</g>
	</g>
	<g>
		<path class="st4" d="M-820.3,156.1c1-0.9,2.4-1.1,3.7-1c27.2,0,54.4,0,81.7,0c-7.3,5.5-14.6,11-21.9,16.5c-1,0.9-2.3,1.1-3.6,1
			c-27.3,0-54.5,0-81.8,0C-834.9,167.1-827.6,161.6-820.3,156.1z"/>
		<path class="st4" d="M-750.1,181.5c9.1-6.8,18.1-13.6,27.2-20.4c0,29.7,0.1,59.4,0,89.1c-9.1,6.7-18.1,13.6-27.2,20.3
			C-750.1,240.8-750.1,211.1-750.1,181.5z"/>
		<path class="st4" d="M-854.1,214.1c0-9.9,0-19.8,0-29.6c30.7,0,61.4,0,92,0c0,30.7,0,61.4,0,92c-30.7,0-61.4,0-92.1,0
			c0-11.1,0-22.1,0-33.2c3.4,2.9,7.6,6.4,12.5,4.8c11.7-4,23.3-8.3,34.9-12.5c6.3-2.4,7.9-10.9,4.9-16.4c-2.3-4.9-8.2-8.3-13.5-6.3
			c-9,3.1-17.9,6.5-26.9,9.6C-846.1,219.7-850.1,216.9-854.1,214.1z"/>
	</g>
	<g>
		<path class="st5" d="M-1000.5,379.9c31.7-0.7,63.4-0.8,95.1-0.1c19.6,0.4,39.3,0.9,58.9,2.7c3.9,0.5,7.9,0.6,11.6,1.9
			c0.2,0.3,0.6,0.9,0.8,1.2c-10.5,2.5-21.5,2.6-32.3,3.4c-47.4,2.1-94.8,2.1-142.2,0.9c-15.4-0.5-30.7-1-46-2.5
			c-3.7-0.5-7.6-0.6-10.9-2.4c4.4-2,9.2-2.1,13.9-2.6C-1034.6,380.9-1017.6,380.4-1000.5,379.9z"/>
	</g>
</g>
<rect class="st0" width="468" height="468"/>
<g>
	<g>
		<path class="st1" d="M264.8,15.1c19.6-2.4,40.1-0.9,58.6,6.6c13.8,5.6,26.4,15.1,33.8,28.2c3.3,5.6,5.1,11.8,6.6,18
			c10.9,3.1,21.8,6.9,31.4,13c4.7,3.1,9.5,7.1,11.3,12.7c1.7,5.1-0.3,10.8-4,14.4c-6.7,6.6-16,9.3-24.5,12.6
			c2.7,13.8,1.4,28.3-3.4,41.5c-5.7,15.7-16,29.4-28.6,40.2c0.9,2.1,1.7,4.1,2.6,6.2c1.6-0.9,3.3-2.1,5.2-1.9c34.7,0,69.4,0,104.1,0
			c3.4,0,5.9,3.4,5.5,6.6c0,34,0,68,0,102c0.1,2.3-0.5,4.7-2.5,6c-12,9.1-24.1,18-36,27.1c-2.1,1.5-4.2,3.7-7,3.4
			c-33.9,0-67.9,0-101.8,0c-4.9,5.3-10.3,10.1-16.1,14.4c10.9,17.4,21.8,34.7,32.7,52c6.9-3.5,13.6-7.1,20.5-10.5
			c5.4-2.4,11.7,1.2,14,6.2c2.6,4.9,1.6,12.2-3.7,14.8c-8.5,4.5-17.2,8.8-25.8,13.3c-2.8,1.5-5.6,3.4-8.8,3.5
			c-4.2,0.1-8.1-2.4-10.4-5.9c-14.2-20.1-28.5-40.1-41.1-61.3c-25.3,9.5-53.9,5.9-77.9-5.6c-4.1,6.2-8.1,12.6-12.3,18.8
			c-2.9,4.3-8.5,6.4-13.5,5.3c-14.4-2.9-28.7-5.9-43.1-8.9c-4.8,9.5-9.4,19.2-14.3,28.7c-3.1,6.1-11.5,7.2-17.1,4.1
			c-5.6-2.7-9.4-9.8-6.5-15.8c5.3-10.9,10.8-21.8,16.2-32.7c1.7-3.5,2.7-7.6,5.9-10.2c2.4-2.2,5.9-2.9,9.1-2
			c15.5,3.3,31.1,6.3,46.6,9.7c2.3-3.3,4.5-6.7,6.6-10.1c-14.1-10-26.5-22.5-35.1-37.6c-7.6-13.3-12-28.5-12.1-43.9
			c-0.2-18,5.1-35.7,13.4-51.6c9.7-18.5,23.2-35,39.3-48.4c-6.3-14.9-7.4-31.8-3.6-47.5c-5.3-3.8-9.2-9.3-10.9-15.6
			c-4.2-14.4-1.4-30.2,5.6-43.3c7.2-13.7,18.4-25.1,31-34C222.3,25.5,243.3,17.9,264.8,15.1z M265.7,32.1
			c-21.4,3.1-42.2,11.3-58.9,25.2C195.6,66.6,186,79,183.4,93.6c-1.1,6.9-0.9,14.6,2.6,20.8c1.5,0.6,3.2,0.2,4.8,0.2
			c22.7-1.7,45.2-5,67.4-10.1c30.9-7.2,61.3-17.8,88.9-33.6c-2.2-13.6-12.3-24.6-24.3-30.7C305.3,31.2,284.9,29.5,265.7,32.1z
			 M206.7,127.1c20.9,5.8,42.9,5.5,64.3,3.7c34.9-3.4,69.4-11.3,102.5-23.1c7.1-2.9,15-4.8,20.5-10.5c-3.1-3.9-7.6-6.1-12-8.2
			c-7.7-3.6-15.8-6.4-24-8.7C312.1,107.6,259.3,121.2,206.7,127.1z M258.7,145.3c-21.5,0.8-43.5-0.3-63.9-7.6
			c-3.4,16.1,0.7,33.6,10.7,46.7c9.9,13.1,24.8,21.7,40.6,25.7c21.8,5.5,45.2,2.8,65.7-6.2c-6.7,0.5-13.6,0.4-20.2-1
			c-11.6-2.3-22.3-9-28.9-18.9c2.8-1.9,5.6-3.9,8.4-5.9c4.8,6.7,11.9,11.9,19.9,14c12.5,3.5,25.8,1.4,38-2.5c3.4-1.2,6.9-2.1,10-4.1
			c16-14.9,26.2-37.3,22.7-59.4C328.3,136.3,293.7,143.6,258.7,145.3z M164,224.4c-9,14.1-15.8,29.9-17.1,46.7
			c-1.3,15.4,2.6,31.1,10.7,44.2c7.3,11.9,17.3,22.1,28.8,29.9c5.5-8.9,11.4-17.6,17.1-26.5c1.6-2.6,3.3-5.3,6.1-6.8
			c4.9-3,11.6-2.2,15.6,1.9c4.4,4.1,5.2,11.5,1.8,16.5c-6,9.4-12.1,18.6-18.2,28c16.5,7.3,35.2,10.8,53.1,6.8
			c16.9-3.7,31.8-13.9,43.2-26.7c1.2-1.6,3.3-3,3.3-5.2c0.1-11.6-0.1-23.2,0.1-34.8c-11.2-8.1-22.7-15.9-33.9-24
			c-5.1-3.6-5.2-11.5-1.5-16.1c3.3-4.6,10.3-6.8,15.2-3.4c6.8,4.6,13.4,9.5,20.2,14.1c0-8.9,0-17.8,0-26.8c-0.2-2.3,1-4.3,2.8-5.6
			c7.7-5.8,15.5-11.5,23.1-17.4c-0.8-2.3-1.6-4.5-2.5-6.8c-27.7,16.6-62.2,22.1-93.4,13c-18.7-5.4-36-16.5-47.6-32.3
			C180.5,202.3,171.4,212.9,164,224.4z M354,219.4c-7.3,5.5-14.6,11-21.9,16.5c27.3,0,54.5,0,81.8,0c1.3,0,2.6-0.1,3.6-1
			c7.3-5.5,14.6-11,21.9-16.5c-27.2,0-54.4,0-81.7,0C356.4,218.3,355,218.5,354,219.4z M424.2,244.8c0,29.7,0,59.4,0,89
			c9.1-6.7,18.1-13.6,27.2-20.3c0.1-29.7,0-59.4,0-89.1C442.3,231.1,433.3,238,424.2,244.8z M320.2,277.4c4,2.8,7.9,5.5,11.9,8.4
			c9-3.1,17.9-6.5,26.8-9.6c5.3-2,11.2,1.4,13.5,6.3c3,5.6,1.4,14-4.9,16.5c-11.6,4.2-23.2,8.5-34.9,12.5c-4.8,1.6-9-1.9-12.5-4.8
			c0,11.1,0,22.1,0,33.2c30.7,0,61.4,0,92.1,0c0-30.7,0-61.4,0-92c-30.7,0-61.4,0-92,0C320.2,257.7,320.2,267.5,320.2,277.4z"/>
	</g>
	<path class="st1" d="M81.3,113c18.6-1.3,37.4-1.4,56,1c3.2,0.7,7.1,0.7,9.6,3.1c-0.3,1.4-2,1.6-3.1,2.1c-5.5,1.5-11.2,2-16.9,2.4
		c-15.6,1.1-31.3,1.1-46.9-0.2c-5.7-0.7-11.8-0.8-17-3.5c-0.3-1.8,1.7-2.1,2.9-2.6C70.9,113.9,76.1,113.5,81.3,113z"/>
	<path class="st1" d="M336.1,147.6c4.2-2.6,9.9,0.8,10.4,5.6c1.1,4.8-3.8,9.9-8.6,8.1C332.1,159.6,330.8,150.6,336.1,147.6z"/>
	<path class="st1" d="M53.7,155.3c18.6-2.3,37.6-2.2,56.3-0.9c6.1,0.8,12.6,0.8,18.1,3.9c-1.2,1.2-2.7,2.2-4.4,2.5
		c-8.2,1.9-16.6,2.3-24.9,2.7c-13.7,0.5-27.5,0.4-41.1-1c-4.9-0.6-10-1.1-14.5-3.5C45.7,155.9,50.1,156.1,53.7,155.3z"/>
	<path class="st1" d="M278,157.3c4.6-2.6,10.5,1.8,10.3,6.9c0.4,4.7-4.9,8.8-9.4,6.7C273.4,168.7,272.7,160,278,157.3z"/>
	<path class="st1" d="M16.9,298.8c13.2-1.6,26.6-1.7,39.9-1.4c9,0.3,18,0.7,26.8,2.4c2.2,0.4,4.2,1.3,6.1,2.5
		c-3.9,3.2-9.3,3.1-14,3.9c-18.9,1.9-38.1,1.9-57,0c-4.8-0.8-10.1-0.7-14-3.9C8.2,299.8,12.7,299.4,16.9,298.8z"/>
	<path class="st1" d="M50.9,334.3c18.2-2,36.6-2,54.9-0.6c5.9,0.6,12.1,1,17.5,3.7c-2,3.1-6.2,3-9.5,3.7c-18.9,2.5-38.1,2.4-57.1,1
		c-6.2-0.8-12.8-0.7-18.3-4.1C41.9,335.1,46.7,335,50.9,334.3z"/>
	<g>
		<path class="st0" d="M265.7,32.1c19.2-2.6,39.6-0.9,57,8.1c12,6.1,22,17.1,24.3,30.7c-27.6,15.9-58,26.5-88.9,33.6
			c-22.2,5.1-44.7,8.4-67.4,10.1c-1.6,0-3.3,0.4-4.8-0.2c-3.5-6.3-3.6-13.9-2.6-20.8c2.6-14.7,12.2-27,23.4-36.4
			C223.5,43.4,244.4,35.1,265.7,32.1z"/>
		<path class="st0" d="M164,224.4c7.4-11.6,16.5-22.1,26.9-31.1c11.6,15.8,28.8,26.9,47.6,32.3c31.2,9.1,65.7,3.5,93.4-13
			c0.8,2.3,1.6,4.5,2.5,6.8c-7.7,5.8-15.4,11.6-23.1,17.4c-1.9,1.2-3,3.3-2.8,5.6c0,8.9,0,17.9,0,26.8c-6.8-4.6-13.4-9.5-20.2-14.1
			c-4.9-3.3-11.9-1.2-15.2,3.4c-3.7,4.7-3.6,12.5,1.5,16.1c11.2,8.1,22.7,15.8,33.9,24c-0.1,11.6,0.1,23.2-0.1,34.8
			c0,2.2-2.1,3.6-3.3,5.2c-11.4,12.8-26.3,23-43.2,26.7c-17.8,4.1-36.6,0.6-53.1-6.8c6-9.4,12.1-18.6,18.2-28
			c3.4-5,2.6-12.4-1.8-16.5c-4-4-10.8-4.8-15.6-1.9c-2.7,1.5-4.4,4.2-6.1,6.8c-5.6,8.9-11.5,17.6-17.1,26.5
			c-11.5-7.8-21.5-18-28.8-29.9c-8-13.1-12-28.8-10.7-44.2C148.2,254.4,155,238.5,164,224.4z"/>
	</g>
	<g>
		<path class="st2" d="M206.7,127.1c52.7-5.9,105.4-19.4,151.2-46.8c8.2,2.3,16.3,5.1,24,8.7c4.4,2.1,8.9,4.4,12,8.2
			c-5.5,5.7-13.4,7.7-20.5,10.5c-33.1,11.8-67.5,19.7-102.5,23.1C249.5,132.6,227.5,132.9,206.7,127.1z"/>
	</g>
	<g>
		<g>
			<path class="st3" d="M258.7,145.3c35-1.6,69.6-9,103-19.3c3.5,22.1-6.7,44.5-22.7,59.4c-3.1,1.9-6.6,2.8-10,4.1
				c-12.2,3.9-25.5,6-38,2.5c-8-2.2-15.1-7.3-19.9-14c-2.8,2-5.5,4-8.4,5.9c6.6,9.9,17.3,16.6,28.9,18.9c6.6,1.4,13.5,1.6,20.2,1
				c-20.5,9-43.9,11.7-65.7,6.2c-15.8-4-30.7-12.6-40.6-25.7c-10.1-13.1-14.1-30.5-10.7-46.7C215.2,145,237.2,146.1,258.7,145.3z
				 M336.1,147.6c-5.3,3-4.1,12,1.8,13.6c4.8,1.8,9.7-3.3,8.6-8.1C346.1,148.4,340.4,145,336.1,147.6z M278,157.3
				c-5.3,2.7-4.5,11.4,0.9,13.6c4.4,2.2,9.7-1.9,9.4-6.7C288.5,159.1,282.6,154.6,278,157.3z"/>
		</g>
	</g>
	<g>
		<path class="st4" d="M354,219.4c1-0.9,2.4-1.1,3.7-1c27.2,0,54.4,0,81.7,0c-7.3,5.5-14.6,11-21.9,16.5c-1,0.9-2.3,1.1-3.6,1
			c-27.3,0-54.5,0-81.8,0C339.4,230.4,346.7,224.9,354,219.4z"/>
		<path class="st4" d="M424.2,244.8c9.1-6.8,18.1-13.6,27.2-20.4c0,29.7,0,59.4,0,89.1c-9.1,6.7-18.1,13.6-27.2,20.3
			C424.2,304.1,424.2,274.4,424.2,244.8z"/>
		<path class="st4" d="M320.2,277.4c0-9.9,0-19.8,0-29.6c30.7,0,61.4,0,92,0c0,30.7,0,61.3,0,92c-30.7,0-61.4,0-92.1,0
			c0-11.1,0-22.1,0-33.2c3.4,2.9,7.6,6.4,12.5,4.8c11.7-4,23.3-8.3,34.9-12.5c6.3-2.4,7.9-10.9,4.9-16.5c-2.3-4.9-8.2-8.3-13.5-6.3
			c-9,3.1-17.9,6.5-26.8,9.6C328.1,282.9,324.2,280.2,320.2,277.4z"/>
	</g>
	<g>
		<path class="st5" d="M173.7,443.2c31.7-0.7,63.4-0.8,95.1-0.1c19.6,0.4,39.3,0.9,58.9,2.7c3.9,0.5,7.9,0.6,11.6,1.9
			c0.2,0.3,0.6,0.9,0.9,1.2c-10.6,2.5-21.5,2.6-32.3,3.4c-47.4,2.1-94.8,2.1-142.2,0.9c-15.4-0.5-30.7-1-46-2.5
			c-3.7-0.5-7.6-0.6-10.9-2.4c4.4-2,9.2-2.1,13.9-2.6C139.7,444.2,156.7,443.7,173.7,443.2z"/>
	</g>
</g>
</svg>
